<svg width="15" height="15" viewBox="0 0 15 15" fill="none" xmlns="http://www.w3.org/2000/svg">
<path d="M10.6248 5.73131C10.5077 5.6149 10.3493 5.54956 10.1842 5.54956C10.0191 5.54956 9.86067 5.6149 9.74357 5.73131L7.49982 7.94381L5.28732 5.73131C5.17021 5.6149 5.01181 5.54956 4.84669 5.54956C4.68157 5.54956 4.52317 5.6149 4.40607 5.73131C4.34749 5.78941 4.30099 5.85853 4.26926 5.9347C4.23753 6.01086 4.22119 6.09255 4.22119 6.17506C4.22119 6.25756 4.23753 6.33925 4.26926 6.41542C4.30099 6.49158 4.34749 6.5607 4.40607 6.61881L7.05607 9.26881C7.11417 9.32739 7.18329 9.37388 7.25945 9.40561C7.33562 9.43734 7.41731 9.45368 7.49982 9.45368C7.58232 9.45368 7.66401 9.43734 7.74018 9.40561C7.81634 9.37388 7.88546 9.32739 7.94357 9.26881L10.6248 6.61881C10.6834 6.5607 10.7299 6.49158 10.7616 6.41542C10.7934 6.33925 10.8097 6.25756 10.8097 6.17506C10.8097 6.09255 10.7934 6.01086 10.7616 5.9347C10.7299 5.85853 10.6834 5.78941 10.6248 5.73131Z" fill="#C1C1C1"/>
</svg>
