<svg width="13" height="12" viewBox="0 0 13 12" fill="none" xmlns="http://www.w3.org/2000/svg">
<path d="M9.3247 11.2502C9.24577 11.2505 9.16875 11.2259 9.10462 11.1799L6.09032 8.99461L3.07603 11.1799C3.01163 11.2266 2.93404 11.2516 2.85449 11.2514C2.77494 11.2511 2.69754 11.2255 2.63348 11.1783C2.56942 11.1311 2.52203 11.0648 2.49815 10.9889C2.47427 10.913 2.47514 10.8315 2.50064 10.7562L3.67626 7.27406L0.629386 5.18461C0.563388 5.1394 0.513577 5.07427 0.487231 4.99874C0.460884 4.92321 0.459382 4.84123 0.482945 4.76478C0.506507 4.68833 0.553899 4.62142 0.618197 4.57383C0.682494 4.52623 0.760327 4.50045 0.840323 4.50024H4.59923L5.7336 1.00922C5.75804 0.93385 5.80572 0.868157 5.86981 0.821566C5.93389 0.774974 6.01109 0.749878 6.09032 0.749878C6.16956 0.749878 6.24675 0.774974 6.31084 0.821566C6.37492 0.868157 6.42261 0.93385 6.44704 1.00922L7.58142 4.50141H11.3403C11.4204 4.50137 11.4984 4.52698 11.5629 4.57448C11.6274 4.62198 11.675 4.68889 11.6987 4.76539C11.7224 4.8419 11.721 4.92399 11.6947 4.99964C11.6684 5.07528 11.6185 5.14052 11.5524 5.18578L8.50438 7.27406L9.67931 10.7552C9.69834 10.8116 9.7037 10.8717 9.69493 10.9305C9.68616 10.9894 9.66352 11.0453 9.62887 11.0936C9.59423 11.142 9.54858 11.1814 9.49569 11.2086C9.4428 11.2359 9.38419 11.2501 9.3247 11.2502Z" fill="#22467C"/>
</svg>
