<svg width="14" height="15" viewBox="0 0 14 15" fill="none" xmlns="http://www.w3.org/2000/svg">
<path d="M8.23373 7.81957L13.7428 2.31922C13.9075 2.15455 14 1.93122 14 1.69835C14 1.46548 13.9075 1.24215 13.7428 1.07748C13.5782 0.91282 13.3548 0.820312 13.122 0.820312C12.8891 0.820312 12.6658 0.91282 12.5011 1.07748L7.00075 6.58658L1.5004 1.07748C1.33573 0.91282 1.1124 0.820313 0.87953 0.820313C0.64666 0.820313 0.423328 0.91282 0.258664 1.07748C0.0939997 1.24215 0.00149256 1.46548 0.00149256 1.69835C0.00149256 1.93122 0.0939997 2.15455 0.258664 2.31922L5.76776 7.81957L0.258664 13.3199C0.176702 13.4012 0.111647 13.4979 0.0672522 13.6045C0.022857 13.711 0 13.8253 0 13.9408C0 14.0562 0.022857 14.1705 0.0672522 14.2771C0.111647 14.3836 0.176702 14.4804 0.258664 14.5616C0.339956 14.6436 0.436672 14.7087 0.543233 14.7531C0.649794 14.7975 0.764091 14.8203 0.87953 14.8203C0.994969 14.8203 1.10927 14.7975 1.21583 14.7531C1.32239 14.7087 1.4191 14.6436 1.5004 14.5616L7.00075 9.05255L12.5011 14.5616C12.5824 14.6436 12.6791 14.7087 12.7857 14.7531C12.8922 14.7975 13.0065 14.8203 13.122 14.8203C13.2374 14.8203 13.3517 14.7975 13.4583 14.7531C13.5648 14.7087 13.6615 14.6436 13.7428 14.5616C13.8248 14.4804 13.8898 14.3836 13.9342 14.2771C13.9786 14.1705 14.0015 14.0562 14.0015 13.9408C14.0015 13.8253 13.9786 13.711 13.9342 13.6045C13.8898 13.4979 13.8248 13.4012 13.7428 13.3199L8.23373 7.81957Z" fill="#C1C1C1"/>
</svg>
