<svg width="16" height="16" viewBox="0 0 16 16" fill="none" xmlns="http://www.w3.org/2000/svg">
<path d="M13.9999 9.33325C13.8231 9.33325 13.6535 9.40349 13.5285 9.52851C13.4035 9.65354 13.3333 9.82311 13.3333 9.99992V12.6666C13.3333 12.8434 13.263 13.013 13.138 13.138C13.013 13.263 12.8434 13.3333 12.6666 13.3333H3.33325C3.15644 13.3333 2.98687 13.263 2.86185 13.138C2.73682 13.013 2.66659 12.8434 2.66659 12.6666V9.99992C2.66659 9.82311 2.59635 9.65354 2.47132 9.52851C2.3463 9.40349 2.17673 9.33325 1.99992 9.33325C1.82311 9.33325 1.65354 9.40349 1.52851 9.52851C1.40349 9.65354 1.33325 9.82311 1.33325 9.99992V12.6666C1.33325 13.197 1.54397 13.7057 1.91904 14.0808C2.29411 14.4559 2.80282 14.6666 3.33325 14.6666H12.6666C13.197 14.6666 13.7057 14.4559 14.0808 14.0808C14.4559 13.7057 14.6666 13.197 14.6666 12.6666V9.99992C14.6666 9.82311 14.5963 9.65354 14.4713 9.52851C14.3463 9.40349 14.1767 9.33325 13.9999 9.33325ZM7.52659 10.4733C7.58999 10.5339 7.66475 10.5815 7.74659 10.6133C7.82639 10.6485 7.91267 10.6667 7.99992 10.6667C8.08717 10.6667 8.17345 10.6485 8.25325 10.6133C8.33509 10.5815 8.40985 10.5339 8.47325 10.4733L11.1399 7.80659C11.2655 7.68105 11.336 7.51079 11.336 7.33325C11.336 7.15572 11.2655 6.98545 11.1399 6.85992C11.0144 6.73438 10.8441 6.66386 10.6666 6.66386C10.4891 6.66386 10.3188 6.73438 10.1933 6.85992L8.66659 8.39325V1.99992C8.66659 1.82311 8.59635 1.65354 8.47132 1.52851C8.3463 1.40349 8.17673 1.33325 7.99992 1.33325C7.82311 1.33325 7.65354 1.40349 7.52851 1.52851C7.40349 1.65354 7.33325 1.82311 7.33325 1.99992V8.39325L5.80659 6.85992C5.74443 6.79776 5.67063 6.74845 5.58942 6.71481C5.5082 6.68117 5.42116 6.66386 5.33325 6.66386C5.24535 6.66386 5.1583 6.68117 5.07709 6.71481C4.99587 6.74845 4.92208 6.79776 4.85992 6.85992C4.79776 6.92208 4.74845 6.99587 4.71481 7.07709C4.68117 7.1583 4.66386 7.24535 4.66386 7.33325C4.66386 7.42116 4.68117 7.5082 4.71481 7.58942C4.74845 7.67063 4.79776 7.74443 4.85992 7.80659L7.52659 10.4733Z" fill="#A2A2A2"/>
</svg>
