<svg width="16" height="16" viewBox="0 0 16 16" fill="none" xmlns="http://www.w3.org/2000/svg">
<path d="M12.6667 2.66675H3.33337C2.80294 2.66675 2.29423 2.87746 1.91916 3.25253C1.54409 3.62761 1.33337 4.13631 1.33337 4.66675V11.3334C1.33337 11.8638 1.54409 12.3726 1.91916 12.7476C2.29423 13.1227 2.80294 13.3334 3.33337 13.3334H12.6667C13.1971 13.3334 13.7058 13.1227 14.0809 12.7476C14.456 12.3726 14.6667 11.8638 14.6667 11.3334V4.66675C14.6667 4.13631 14.456 3.62761 14.0809 3.25253C13.7058 2.87746 13.1971 2.66675 12.6667 2.66675ZM3.33337 4.00008H12.6667C12.8435 4.00008 13.0131 4.07032 13.1381 4.19534C13.2631 4.32037 13.3334 4.48994 13.3334 4.66675L8.00004 7.92008L2.66671 4.66675C2.66671 4.48994 2.73695 4.32037 2.86197 4.19534C2.98699 4.07032 3.15656 4.00008 3.33337 4.00008ZM13.3334 11.3334C13.3334 11.5102 13.2631 11.6798 13.1381 11.8048C13.0131 11.9298 12.8435 12.0001 12.6667 12.0001H3.33337C3.15656 12.0001 2.98699 11.9298 2.86197 11.8048C2.73695 11.6798 2.66671 11.5102 2.66671 11.3334V6.18675L7.65337 9.23341C7.75472 9.29193 7.86968 9.32273 7.98671 9.32273C8.10373 9.32273 8.21869 9.29193 8.32004 9.23341L13.3334 6.18675V11.3334Z" fill="#A2A2A2"/>
</svg>
