<svg width="148" height="21" viewBox="0 0 148 21" fill="none" xmlns="http://www.w3.org/2000/svg">
<g clip-path="url(#clip0_5494_1918)">
<path d="M18.2404 1.54575V1.1355H12.6503V1.54575C14.3769 1.66541 14.1034 1.9731 14.1376 3.6825V10.1611H4.1028V3.6825C4.13699 1.9731 3.84637 1.66541 5.59006 1.54575V1.1355H0V1.54575C1.76078 1.66541 1.45307 1.95601 1.48726 3.6825V17.8705C1.45307 19.6483 1.76078 19.8876 0 20.0414V20.4517H5.59006V20.0414C3.86347 19.9047 4.15408 19.6141 4.1028 17.8705V10.9645H14.1376V17.8705C14.1034 19.6141 14.394 19.8876 12.6503 20.0414V20.4517H18.2404V20.0414C16.4796 19.9047 16.7873 19.6483 16.7531 17.8705V3.6825C16.7873 1.95601 16.4796 1.66541 18.2404 1.54575Z" fill="white"/>
<path d="M19.8642 13.8192C19.5736 8.69104 22.4113 5.1355 26.7193 5.1355C30.2408 5.1355 32.2068 7.76797 32.2409 11.4603H22.3258C22.2917 11.6312 22.2917 11.8363 22.2917 12.0073C22.1549 15.9389 24.3772 18.3833 27.6937 18.3833C29.7451 18.3833 30.9417 17.1526 31.7452 15.8534L32.2239 16.0756C31.5742 18.4517 29.557 20.3149 26.7193 20.4346C23.0438 20.5884 20.0693 17.4944 19.8642 13.8192ZM29.6083 10.6398C29.557 8.26369 28.3433 5.93891 26.2919 5.93891C24.2405 5.93891 22.8216 7.93891 22.4284 10.6398H29.6083Z" fill="white"/>
<path d="M35.3007 18.2978V3.35771C35.3007 2.38336 34.8563 1.81926 33.8306 1.75088V1.1355H36.8906C37.335 1.1355 37.694 1.49447 37.694 1.93891V18.2978C37.694 19.5628 38.1385 19.8363 39.1642 20.0243V20.4346H33.8135V20.0243C34.8905 19.8363 35.3007 19.5628 35.3007 18.2978Z" fill="white"/>
<path d="M41.9687 18.2978V3.35771C41.9687 2.38336 41.5242 1.81926 40.4985 1.75088V1.1355H43.5585C44.003 1.1355 44.362 1.49447 44.362 1.93891V18.2978C44.362 19.5628 44.8065 19.8363 45.8322 20.0243V20.4346H40.4814V20.0243C41.5584 19.8363 41.9687 19.5628 41.9687 18.2978Z" fill="white"/>
<path d="M47.4219 13.1013C47.4219 8.40044 50.3793 5.1355 54.6531 5.1355C58.9268 5.1355 61.6107 8.14404 61.6107 12.503C61.6107 17.2038 58.6704 20.4517 54.3795 20.4517C50.2767 20.4346 47.4219 17.4261 47.4219 13.1013ZM54.8924 19.6312C57.4054 19.6312 58.9439 17.1184 58.9439 13.5628C58.9439 10.3833 57.6105 5.93891 54.1744 5.93891C51.6956 5.93891 50.1229 8.41754 50.1229 11.9389C50.1229 15.1697 51.4221 19.6312 54.8924 19.6312Z" fill="white"/>
<path d="M65.3271 1.18958H78.0036V3.97759H68.5368V9.0187H76.2367V11.8067H68.5368V20.349H65.3271V1.18958Z" fill="white"/>
<path d="M86.0929 9.14846C84.0666 9.14846 82.2835 10.9639 82.2835 15.227V20.3815H79.3008V6.57117H82.2835V9.19709C83.0292 7.55994 84.8285 6.34424 86.4982 6.34424C87.0169 6.34424 87.6167 6.42529 88.0382 6.58738L87.8761 9.45644C87.3897 9.24571 86.7251 9.14846 86.0929 9.14846Z" fill="white"/>
<path d="M95.3328 6.34424C99.7745 6.34424 102.125 9.5699 102.125 12.9415C102.125 13.3467 102.093 13.9302 102.076 14.1734H91.5234C91.799 16.5561 93.339 18.0312 95.5274 18.0312C97.3429 18.0312 98.6235 17.1883 98.9802 15.6808L101.801 16.394C101.055 19.0524 98.7046 20.5923 95.4787 20.5923C91.1019 20.5923 88.6056 17.1883 88.6056 13.4764C88.5893 9.74821 90.9398 6.34424 95.3328 6.34424ZM98.9478 11.904C98.7532 10.04 97.5212 8.6946 95.3328 8.6946C93.4362 8.6946 92.107 9.84546 91.6693 11.904H98.9478Z" fill="white"/>
<path d="M104.621 6.57107H107.604V8.8728C108.528 7.39775 110.116 6.36035 112.143 6.36035C115.077 6.36035 117.135 8.30548 117.135 11.288V20.3815H114.153V11.9688C114.153 10.2506 113.083 9.0349 111.332 9.0349C108.998 9.0349 107.604 11.0124 107.604 14.3192V20.3652H104.621V6.57107Z" fill="white"/>
<path d="M119.632 13.4763C119.632 9.22941 122.42 6.36035 126.57 6.36035C129.974 6.36035 132.406 8.1758 132.876 11.0124L129.974 11.596C129.698 10.0399 128.418 8.97006 126.667 8.97006C124.284 8.97006 122.744 10.7531 122.744 13.4925C122.744 16.2319 124.3 18.0149 126.667 18.0149C128.418 18.0149 129.65 17.0585 129.974 15.4376L132.908 16.0049C132.325 18.874 129.942 20.6084 126.586 20.6084C122.42 20.5922 119.632 17.7231 119.632 13.4763Z" fill="white"/>
<path d="M135.323 0.978882H138.306V8.95389C139.262 7.2357 140.883 6.34418 142.829 6.34418C145.957 6.34418 148 8.28931 148 11.3042V20.3653H145.017V11.985C145.017 10.1534 143.866 9.03494 142.002 9.03494C139.7 9.03494 138.306 11.0287 138.306 14.4002V20.3653H135.323V0.978882Z" fill="white"/>
</g>
<defs>
<clipPath id="clip0_5494_1918">
<rect width="148" height="19.6295" fill="white" transform="translate(0 0.978882)"/>
</clipPath>
</defs>
</svg>
