<svg width="193" height="27" viewBox="0 0 193 27" fill="none" xmlns="http://www.w3.org/2000/svg">
<path d="M0.337891 26V0.792969H5.38281V11.8848H11.1484V0.792969H16.1758V26H11.1484V16.9297H5.38281V26H0.337891ZM19.8672 13.4316C19.8672 11.0645 20.2422 8.90234 20.9922 6.94531C21.7539 4.98828 22.791 3.45312 24.1035 2.33984C25.4277 1.21484 26.8809 0.652344 28.4629 0.652344C30.0449 0.652344 31.4922 1.21484 32.8047 2.33984C34.1289 3.45312 35.1719 4.98828 35.9336 6.94531C36.6953 8.90234 37.0762 11.0645 37.0762 13.4316C37.0762 15.834 36.7129 18.002 35.9863 19.9355C35.2715 21.8574 34.252 23.3691 32.9277 24.4707C31.6152 25.5605 30.127 26.1055 28.4629 26.1055C26.7988 26.1055 25.3105 25.5605 23.998 24.4707C22.6855 23.3691 21.666 21.8574 20.9395 19.9355C20.2246 18.002 19.8672 15.834 19.8672 13.4316ZM24.9824 13.502C24.9824 14.9316 25.1289 16.2324 25.4219 17.4043C25.7148 18.5762 26.125 19.5078 26.6523 20.1992C27.1914 20.8789 27.7949 21.2188 28.4629 21.2188C29.4824 21.2188 30.3203 20.4805 30.9766 19.0039C31.6328 17.5273 31.9609 15.6934 31.9609 13.502C31.9609 12.0605 31.8086 10.748 31.5039 9.56445C31.1992 8.36914 30.7773 7.43164 30.2383 6.75195C29.7109 6.07227 29.1191 5.73242 28.4629 5.73242C27.8066 5.73242 27.209 6.07227 26.6699 6.75195C26.1426 7.43164 25.7266 8.36914 25.4219 9.56445C25.1289 10.748 24.9824 12.0605 24.9824 13.502ZM39.3965 0.792969H44.9863L47.6055 17.3164L50.8223 0.792969H55.4277L58.627 17.3164L61.2461 0.792969H66.8359L61.2812 26H56.2188L53.125 11.498L50.0137 26H44.9512L39.3965 0.792969ZM76.873 5.66211V0.792969H91.6562V5.66211H86.8047V26H81.7246V5.66211H76.873ZM93.5898 13.4316C93.5898 11.0645 93.9648 8.90234 94.7148 6.94531C95.4766 4.98828 96.5137 3.45312 97.8262 2.33984C99.1504 1.21484 100.604 0.652344 102.186 0.652344C103.768 0.652344 105.215 1.21484 106.527 2.33984C107.852 3.45312 108.895 4.98828 109.656 6.94531C110.418 8.90234 110.799 11.0645 110.799 13.4316C110.799 15.834 110.436 18.002 109.709 19.9355C108.994 21.8574 107.975 23.3691 106.65 24.4707C105.338 25.5605 103.85 26.1055 102.186 26.1055C100.521 26.1055 99.0332 25.5605 97.7207 24.4707C96.4082 23.3691 95.3887 21.8574 94.6621 19.9355C93.9473 18.002 93.5898 15.834 93.5898 13.4316ZM98.7051 13.502C98.7051 14.9316 98.8516 16.2324 99.1445 17.4043C99.4375 18.5762 99.8477 19.5078 100.375 20.1992C100.914 20.8789 101.518 21.2188 102.186 21.2188C103.205 21.2188 104.043 20.4805 104.699 19.0039C105.355 17.5273 105.684 15.6934 105.684 13.502C105.684 12.0605 105.531 10.748 105.227 9.56445C104.922 8.36914 104.5 7.43164 103.961 6.75195C103.434 6.07227 102.842 5.73242 102.186 5.73242C101.529 5.73242 100.932 6.07227 100.393 6.75195C99.8652 7.43164 99.4492 8.36914 99.1445 9.56445C98.8516 10.748 98.7051 12.0605 98.7051 13.502ZM122.963 26V1.12695C124.568 0.787109 125.922 0.617188 127.023 0.617188C128.793 0.617188 130.387 0.863281 131.805 1.35547C133.234 1.83594 134.418 2.50391 135.355 3.35938C136.293 4.21484 137.008 5.22852 137.5 6.40039C138.004 7.56055 138.256 8.82617 138.256 10.1973C138.256 12.8926 137.312 15.1191 135.426 16.877C133.539 18.6348 131.02 19.5137 127.867 19.5137V26H122.963ZM127.867 15.0137C129.578 15.0137 130.902 14.5742 131.84 13.6953C132.789 12.8047 133.264 11.6152 133.264 10.127C133.264 8.89648 132.789 7.83594 131.84 6.94531C130.902 6.04297 129.684 5.5918 128.184 5.5918H127.867V15.0137ZM141.244 26V0.792969H146.289V21.0957H153.303V26H141.244ZM154.674 26C155.377 22.5312 156.256 18.3652 157.311 13.502C157.744 11.4746 158.213 9.40625 158.717 7.29688C159.232 5.17578 159.637 3.55859 159.93 2.44531L160.369 0.792969H166.047C167.113 4.71875 168.139 8.95508 169.123 13.502L171.742 26H166.521L165.801 22.2207H160.615L159.895 26H154.674ZM161.441 17.7207H164.975C164.693 15.8809 164.406 14.0879 164.113 12.3418C163.82 10.584 163.598 9.28906 163.445 8.45703L163.217 7.20898C162.654 10.0801 162.062 13.584 161.441 17.7207ZM172.938 0.792969H178.738L182.623 10.0215L186.508 0.792969H192.344L185.225 15.3477V26H180.039V15.3477L172.938 0.792969Z" fill="#22467C"/>
</svg>
