<svg width="230" height="27" viewBox="0 0 230 27" fill="#22467C" xmlns="http://www.w3.org/2000/svg">
<g clip-path="url(#clip0_2627_13600)">
<path d="M164.717 26.8368H159.128C159.117 26.3772 159.094 25.9323 159.094 25.4859C159.091 21.3895 159.092 17.2931 159.092 13.1967C159.092 9.3308 159.092 5.46491 159.092 1.60047C159.092 1.14094 159.092 0.679951 159.092 0.202914C159.211 0.182491 159.29 0.15915 159.368 0.15915C160.825 0.156232 162.284 0.162067 163.741 0.151855C163.96 0.151855 164.058 0.235009 164.146 0.424656C166.031 4.45686 167.922 8.48468 169.813 12.514C169.874 12.6438 169.94 12.7722 170.066 12.8933V0.226256C170.375 0.138726 175.28 0.127055 175.672 0.204373V26.8265H170.812C168.81 22.6528 166.793 18.4514 164.776 14.2485C164.758 14.2514 164.737 14.2544 164.719 14.2558V26.8368H164.717Z" fill="#22467C"/>
<path d="M190.947 0.172162C191.066 0.164867 191.171 0.154656 191.277 0.154656C192.675 0.154656 194.071 0.16195 195.469 0.147362C195.741 0.144444 195.866 0.242185 195.979 0.484351C197.863 4.51655 199.755 8.54438 201.646 12.5737C201.697 12.6831 201.753 12.7896 201.805 12.8917C201.833 12.8888 201.846 12.8902 201.856 12.8844C201.864 12.88 201.873 12.8698 201.874 12.8596C201.88 12.8246 201.883 12.7881 201.885 12.7516C201.886 12.7035 201.885 12.6539 201.885 12.6058C201.885 8.53417 201.885 4.46112 201.885 0.389527C201.885 0.353056 201.887 0.316586 201.889 0.280115C201.889 0.268444 201.893 0.256774 201.898 0.245103C201.902 0.233432 201.906 0.223221 201.911 0.21155C202.168 0.135691 207.054 0.119644 207.472 0.198421V26.8206H202.612C200.611 22.6498 198.594 18.4469 196.578 14.2455C196.559 14.2469 196.54 14.2499 196.521 14.2513V26.8206H190.933C190.92 26.4355 190.905 26.0518 190.895 25.6666C190.891 25.4843 190.894 25.3019 190.894 25.1196C190.894 17.3032 190.894 9.48678 190.894 1.67038C190.894 1.23273 190.904 0.795081 190.911 0.357433C190.911 0.29908 190.93 0.242185 190.944 0.167785L190.947 0.172162Z" fill="#22467C"/>
<path d="M138.317 0.552936C139.355 0.396842 140.386 0.211571 141.424 0.0919467C142.941 -0.0845716 144.456 4.04853e-05 145.955 0.285971C147.273 0.538348 148.548 0.936609 149.723 1.60767C151.228 2.46692 152.48 3.60627 153.371 5.11178C154.173 6.4714 154.592 7.95649 154.688 9.53494C154.829 11.8457 154.274 13.9654 152.967 15.875C152.521 16.5286 151.996 17.1121 151.38 17.6096C151.317 17.6621 151.257 17.7204 151.176 17.7934C152.548 20.7927 153.919 23.7877 155.308 26.8235H148.829C147.935 24.6149 147.033 22.3828 146.14 20.1713C145.397 20.2734 144.677 20.3711 143.909 20.4762C143.909 21.5119 143.909 22.5769 143.909 23.6404C143.909 24.7038 143.909 25.7498 143.909 26.8264H138.338C138.257 26.5361 138.226 1.13793 138.317 0.551478V0.552936ZM143.955 15.0376C144.466 15.0537 144.937 14.9793 145.405 14.867C147.444 14.3768 148.803 12.9515 149.005 10.8406C149.154 9.28986 148.691 7.9915 147.512 6.97324C146.831 6.38679 146.044 6.01041 145.168 5.82077C144.769 5.7347 144.369 5.73032 143.955 5.71281V15.0391V15.0376Z" fill="#22467C"/>
<path d="M0.5 26.8262V0.174899H6.18131V12.1358C6.20444 12.1402 6.22757 12.146 6.2507 12.1504C6.29262 12.0571 6.33599 11.9652 6.37502 11.8718C7.89437 8.3137 9.41228 4.75562 10.9316 1.19754C11.056 0.907231 11.1962 0.625677 11.3162 0.333911C11.3711 0.199699 11.4506 0.142805 11.5894 0.153016C11.6617 0.158852 11.734 0.153016 11.8062 0.153016C13.7694 0.153016 15.7326 0.153016 17.6957 0.153016C17.8244 0.153016 17.9545 0.153016 18.128 0.153016C18.0716 0.293064 18.0398 0.392264 17.9935 0.487088C16.1474 4.30922 14.3014 8.12989 12.4539 11.9506C12.3642 12.1358 12.2775 12.3255 12.1676 12.4991C12.0419 12.6975 12.065 12.8725 12.159 13.0782C12.7517 14.381 13.3372 15.6866 13.9168 16.9952C15.3148 20.1565 16.7069 23.3192 18.1019 26.482C18.1496 26.5899 18.1872 26.7008 18.2407 26.8365H11.4853C10.3751 23.8152 9.26338 20.7896 8.12712 17.694C8.02159 17.9099 7.94208 18.066 7.86691 18.2235C7.37106 19.2637 6.88388 20.3067 6.37791 21.3425C6.23479 21.6343 6.17552 21.9246 6.17697 22.2514C6.18853 23.6971 6.18131 25.1442 6.17986 26.5899C6.17986 26.6599 6.17986 26.7314 6.17986 26.8262H0.5Z" fill="#22467C"/>
<path d="M228.455 6.35469C226.686 7.29418 224.953 8.21324 223.19 9.14835C223.137 9.02581 223.093 8.93244 223.056 8.8347C222.884 8.39413 222.728 7.94773 222.541 7.513C222.323 7.00241 221.989 6.58081 221.555 6.23069C220.811 5.62965 219.913 5.81492 219.359 6.28029C219.067 6.52537 218.809 6.82589 218.589 7.141C217.956 8.05277 217.63 9.09729 217.421 10.1768C217.133 11.6502 217.068 13.1382 217.156 14.6394C217.22 15.7116 217.366 16.7663 217.633 17.8036C217.821 18.5345 218.071 19.2434 218.466 19.8912C218.681 20.2457 218.933 20.5695 219.265 20.8234C220.039 21.4113 220.938 21.4682 221.765 20.9634C222.001 20.819 222.225 20.6468 222.423 20.4557C223.365 19.5498 223.666 18.39 223.724 17.0888H220.5C220.422 16.7853 220.41 12.3855 220.48 11.9916H229.315C229.343 12.1681 229.382 12.3432 229.395 12.5197C229.495 13.9756 229.56 15.433 229.409 16.8889C229.146 19.4623 228.439 21.8854 226.791 23.9175C224.869 26.2867 222.374 27.3662 219.339 26.8892C217.214 26.5565 215.513 25.4303 214.187 23.725C212.938 22.1188 212.159 20.2953 211.702 18.3156C211.275 16.4688 211.138 14.5985 211.18 12.7064C211.231 10.3942 211.695 8.17385 212.637 6.06584C213.416 4.32546 214.489 2.80098 216 1.61788C217.268 0.624413 218.709 0.0861053 220.302 0.020458C221.664 -0.0349775 222.95 0.307847 224.144 0.983285C225.334 1.6558 226.29 2.58216 227.059 3.71129C227.612 4.52386 228.063 5.39186 228.452 6.35469H228.455Z" fill="#22467C"/>
<path d="M129.132 26.8322C128.918 25.6331 128.707 24.4412 128.49 23.2289H123.419C123.167 24.4062 123.004 25.6156 122.76 26.8279H116.807C116.794 25.531 121.593 3.22403 122.539 0.180908H129.363C131.577 8.99223 133.378 17.8955 135.152 26.8322H129.131H129.132ZM127.542 18.0807C127.102 14.492 126.581 10.9617 125.952 7.43712C125.321 10.966 124.798 14.5051 124.367 18.0807H127.542Z" fill="#22467C"/>
<path d="M34.6381 11.3876V17.08H26.8448V21.153H35.0921V26.7899C34.8434 26.8658 21.8559 26.8979 21.243 26.8235C21.1519 26.5273 21.1331 0.685645 21.2271 0.176514H35.0964V5.83677H26.8462V11.3701C27.7064 11.4066 28.568 11.3818 29.4296 11.3862C30.2854 11.3905 31.1397 11.3862 31.9955 11.3862C32.8514 11.3862 33.7288 11.3862 34.6381 11.3862V11.3876Z" fill="#22467C"/>
<path d="M38.9866 0.176514H52.8805V5.84115H44.626V11.3745H52.4353C52.4411 13.2899 52.4526 15.166 52.4252 17.0712H44.6824C44.6043 17.3032 44.574 20.7066 44.6434 21.1574H52.8762V26.7928C52.6189 26.8629 39.5316 26.8906 39.0199 26.822C38.9317 26.5025 38.8956 1.19332 38.9866 0.177972V0.176514Z" fill="#22467C"/>
<path d="M114.312 26.8322H100.475C100.46 26.8162 100.451 26.8089 100.443 26.8001C100.434 26.7914 100.423 26.7812 100.421 26.771C100.414 26.6864 100.402 26.6017 100.402 26.5171C100.402 17.7787 100.404 9.0389 100.407 0.30052C100.407 0.266967 100.425 0.233414 100.443 0.177979H114.318V5.82656C113.403 5.86303 112.494 5.83823 111.583 5.84261C110.668 5.84699 109.753 5.84261 108.836 5.84261C107.92 5.84261 107.01 5.84261 106.069 5.84261V11.3672C106.925 11.408 107.788 11.3803 108.648 11.3847C109.504 11.3905 110.358 11.3847 111.214 11.3847C112.07 11.3847 112.947 11.3847 113.808 11.3847C113.907 11.7159 113.929 16.0778 113.838 17.0741H106.068V21.1472H114.314V26.8293L114.312 26.8322Z" fill="#22467C"/>
<path d="M56.7792 0.590861C57.223 0.498955 57.6769 0.388084 58.1381 0.313684C59.2685 0.132789 60.4048 -0.0101763 61.5526 0.0102473C63.3336 0.0423415 65.0771 0.312225 66.754 0.938062C67.672 1.28089 68.5379 1.73021 69.3417 2.29623C70.4374 3.06795 71.2918 4.05996 71.9712 5.21389C72.7186 6.48161 73.0772 7.8675 73.2232 9.32341C73.4039 11.1324 73.0902 12.8625 72.3688 14.5139C71.6821 16.088 70.582 17.3295 69.1841 18.3025C67.8758 19.2128 66.4345 19.8036 64.8674 20.0604C64.0738 20.1902 63.27 20.2573 62.4142 20.3594C62.3737 20.6629 62.4012 21.0232 62.3954 21.3821C62.3911 21.7468 62.3954 22.1115 62.3954 22.4762C62.3954 22.8409 62.3954 23.2056 62.3954 23.5703C62.3954 23.935 62.3954 24.2749 62.3954 24.628C62.3954 24.9927 62.3954 25.3574 62.3954 25.7221C62.3954 26.0839 62.3954 26.4457 62.3954 26.8294H56.8038C56.7228 26.5376 56.6939 1.11166 56.7792 0.59232V0.590861ZM62.4142 15.0654C62.9404 14.9968 63.4348 14.9662 63.9119 14.864C65.0294 14.6248 65.9791 14.0923 66.6658 13.1382C67.1617 12.4497 67.3973 11.6692 67.471 10.8333C67.604 9.33508 67.2412 8.01484 66.089 6.98782C65.4818 6.44806 64.7735 6.10377 63.9957 5.88933C63.4825 5.74782 62.9621 5.72594 62.4142 5.71864V15.0639V15.0654Z" fill="#22467C"/>
<path d="M84.8362 0.176514H90.6115C90.639 1.16706 90.6202 2.1576 90.6231 3.14815C90.626 4.14453 90.6231 5.14091 90.6231 6.13729V21.1574H97.7298V26.8249H84.8449C84.7582 26.5069 84.7452 0.643339 84.8348 0.176514H84.8362Z" fill="#22467C"/>
<path d="M180.391 0.176508H186.238V26.787C185.978 26.8629 180.885 26.8877 180.401 26.8176C180.317 26.5054 180.303 0.656462 180.391 0.175049V0.176508Z" fill="#22467C"/>
</g>
<defs>
<clipPath id="clip0_2627_13600">
<rect width="229" height="27" fill="#22467C" transform="translate(0.5)"/>
</clipPath>
</defs>
</svg>
