<svg width="16" height="16" viewBox="0 0 16 16" fill="none" xmlns="http://www.w3.org/2000/svg">
<path d="M13.6466 1.33335H2.35329C2.22634 1.33158 2.10029 1.35484 1.98233 1.4018C1.86438 1.44876 1.75683 1.51849 1.66582 1.60702C1.57482 1.69555 1.50215 1.80113 1.45195 1.91775C1.40176 2.03437 1.37503 2.15973 1.37329 2.28668V13.7133C1.37503 13.8403 1.40176 13.9657 1.45195 14.0823C1.50215 14.1989 1.57482 14.3045 1.66582 14.393C1.75683 14.4815 1.86438 14.5513 1.98233 14.5982C2.10029 14.6452 2.22634 14.6684 2.35329 14.6667H13.6466C13.7736 14.6684 13.8996 14.6452 14.0176 14.5982C14.1355 14.5513 14.2431 14.4815 14.3341 14.393C14.4251 14.3045 14.4978 14.1989 14.548 14.0823C14.5982 13.9657 14.6249 13.8403 14.6266 13.7133V2.28668C14.6249 2.15973 14.5982 2.03437 14.548 1.91775C14.4978 1.80113 14.4251 1.69555 14.3341 1.60702C14.2431 1.51849 14.1355 1.44876 14.0176 1.4018C13.8996 1.35484 13.7736 1.33158 13.6466 1.33335ZM5.39329 12.4933H3.39329V6.49334H5.39329V12.4933ZM4.39329 5.65334C4.11747 5.65334 3.85294 5.54377 3.6579 5.34874C3.46286 5.1537 3.35329 4.88917 3.35329 4.61334C3.35329 4.33752 3.46286 4.07299 3.6579 3.87795C3.85294 3.68292 4.11747 3.57334 4.39329 3.57334C4.53975 3.55673 4.68808 3.57125 4.82854 3.61593C4.96901 3.66062 5.09845 3.73447 5.2084 3.83265C5.31834 3.93083 5.40631 4.05113 5.46654 4.18567C5.52677 4.3202 5.5579 4.46594 5.5579 4.61334C5.5579 4.76075 5.52677 4.90649 5.46654 5.04102C5.40631 5.17556 5.31834 5.29586 5.2084 5.39404C5.09845 5.49222 4.96901 5.56607 4.82854 5.61076C4.68808 5.65544 4.53975 5.66995 4.39329 5.65334ZM12.6066 12.4933H10.6066V9.27334C10.6066 8.46668 10.32 7.94001 9.59329 7.94001C9.3684 7.94166 9.14942 8.0122 8.96585 8.14213C8.78228 8.27205 8.64295 8.45513 8.56663 8.66668C8.51445 8.82337 8.49185 8.98839 8.49996 9.15334V12.4867H6.49996C6.49996 12.4867 6.49996 7.03334 6.49996 6.48668H8.49996V7.33334C8.68164 7.01808 8.9459 6.75836 9.26425 6.58215C9.58261 6.40593 9.943 6.31991 10.3066 6.33334C11.64 6.33334 12.6066 7.19335 12.6066 9.04001V12.4933Z" fill="#A2A2A2"/>
</svg>
