<svg width="24" height="25" viewBox="0 0 24 25" fill="none" xmlns="http://www.w3.org/2000/svg">
<path d="M12.0015 2.5C10.0237 2.5 8.09026 3.08649 6.44577 4.1853C4.80128 5.28412 3.51955 6.8459 2.76267 8.67317C2.0058 10.5004 1.80776 12.5111 2.19362 14.4509C2.57947 16.3907 3.53188 18.1725 4.9304 19.5711C6.32893 20.9696 8.11076 21.922 10.0506 22.3079C11.9904 22.6937 14.001 22.4957 15.8283 21.7388C17.6556 20.9819 19.2174 19.7002 20.3162 18.0557C21.415 16.4112 22.0015 14.4778 22.0015 12.5C22.0015 11.1868 21.7428 9.88642 21.2403 8.67317C20.7377 7.45991 20.0011 6.35752 19.0725 5.42893C18.144 4.50035 17.0416 3.76375 15.8283 3.2612C14.615 2.75866 13.3147 2.5 12.0015 2.5ZM12.0015 20.5C10.4192 20.5 8.8725 20.0308 7.55691 19.1518C6.24131 18.2727 5.21593 17.0233 4.61043 15.5615C4.00493 14.0997 3.84651 12.4911 4.15519 10.9393C4.46387 9.38743 5.22579 7.96197 6.34461 6.84315C7.46344 5.72433 8.8889 4.9624 10.4407 4.65372C11.9926 4.34504 13.6011 4.50346 15.0629 5.10896C16.5247 5.71447 17.7742 6.73984 18.6532 8.05544C19.5323 9.37103 20.0015 10.9177 20.0015 12.5C20.0015 14.6217 19.1586 16.6566 17.6583 18.1569C16.158 19.6571 14.1232 20.5 12.0015 20.5ZM16.0015 11.5H8.00147C7.73625 11.5 7.4819 11.6054 7.29436 11.7929C7.10683 11.9804 7.00147 12.2348 7.00147 12.5C7.00147 12.7652 7.10683 13.0196 7.29436 13.2071C7.4819 13.3946 7.73625 13.5 8.00147 13.5H16.0015C16.2667 13.5 16.521 13.3946 16.7086 13.2071C16.8961 13.0196 17.0015 12.7652 17.0015 12.5C17.0015 12.2348 16.8961 11.9804 16.7086 11.7929C16.521 11.6054 16.2667 11.5 16.0015 11.5Z" fill="#C1C1C1"/>
</svg>
