<svg width="146" height="17" viewBox="0 0 146 17" fill="none" xmlns="http://www.w3.org/2000/svg">
<g clip-path="url(#clip0_2505_13377)">
<path d="M104.317 16.9049H100.797C100.79 16.6154 100.775 16.3351 100.775 16.0539C100.773 13.4736 100.774 10.8932 100.774 8.31282C100.774 5.87764 100.774 3.44246 100.774 1.00821C100.774 0.718741 100.774 0.428357 100.774 0.127866C100.849 0.115001 100.899 0.100298 100.948 0.100298C101.866 0.0984599 102.785 0.102136 103.703 0.0957031C103.84 0.0957031 103.902 0.148082 103.958 0.267544C105.145 2.80748 106.336 5.34466 107.527 7.88275C107.566 7.96454 107.607 8.04541 107.687 8.12168V0.142569C107.882 0.0874327 110.971 0.0800812 111.218 0.128785V16.8984H108.157C106.895 14.2694 105.625 11.6228 104.355 8.97537C104.343 8.97721 104.33 8.97904 104.318 8.97996V16.9049H104.317Z" fill="#172337"/>
<path d="M120.84 0.10846C120.914 0.103865 120.981 0.0974324 121.047 0.0974324C121.928 0.0974324 122.808 0.102027 123.688 0.0928377C123.859 0.0909998 123.939 0.152568 124.01 0.305112C125.196 2.84505 126.388 5.38223 127.579 7.92032C127.611 7.98924 127.647 8.05632 127.679 8.12065C127.697 8.11881 127.705 8.11973 127.711 8.11606C127.717 8.1133 127.722 8.10687 127.723 8.10043C127.727 8.07838 127.729 8.05541 127.729 8.03243C127.73 8.00211 127.729 7.97086 127.729 7.94054C127.729 5.37579 127.729 2.81013 127.729 0.245381C127.729 0.222407 127.731 0.199434 127.732 0.176461C127.732 0.169109 127.735 0.161758 127.738 0.154406C127.74 0.147055 127.743 0.140622 127.746 0.133271C127.908 0.0854862 130.986 0.0753779 131.249 0.125V16.8946H128.187C126.927 14.2674 125.657 11.62 124.387 8.97342C124.375 8.97434 124.363 8.97618 124.351 8.9771V16.8946H120.831C120.822 16.652 120.813 16.4104 120.807 16.1678C120.804 16.0529 120.806 15.938 120.806 15.8232C120.806 10.8995 120.806 5.97586 120.806 1.05221C120.806 0.776525 120.812 0.500845 120.817 0.225164C120.817 0.188407 120.829 0.152568 120.838 0.105703L120.84 0.10846Z" fill="#172337"/>
<path d="M87.688 0.348302C88.3418 0.249976 88.9911 0.133271 89.6449 0.0579184C90.6001 -0.0532727 91.5544 2.55022e-05 92.4987 0.180137C93.3292 0.339112 94.1324 0.589982 94.8727 1.01269C95.8207 1.55394 96.6093 2.27163 97.1702 3.21997C97.6756 4.07642 97.9397 5.01189 97.9998 6.00618C98.089 7.46177 97.7394 8.79699 96.9162 9.99987C96.6348 10.4116 96.3042 10.7791 95.9163 11.0925C95.8762 11.1256 95.8389 11.1623 95.7879 11.2083C96.6521 13.0976 97.5153 14.9842 98.3904 16.8965H94.3091C93.7463 15.5052 93.1781 14.0992 92.6153 12.7061C92.1472 12.7705 91.6938 12.832 91.2102 12.8982C91.2102 13.5506 91.2102 14.2215 91.2102 14.8914C91.2102 15.5613 91.2102 16.2201 91.2102 16.8983H87.7007C87.6497 16.7154 87.6306 0.716794 87.688 0.347383V0.348302ZM91.2394 9.4724C91.5608 9.48251 91.8577 9.43565 92.1527 9.36489C93.4367 9.05613 94.2927 8.15833 94.4202 6.82863C94.5139 5.8518 94.2225 5.03395 93.4795 4.39253C93.0506 4.02312 92.5552 3.78604 92.0034 3.66657C91.752 3.61236 91.4998 3.6096 91.2394 3.59857V9.47332V9.4724Z" fill="#172337"/>
<path d="M0.875 16.8982V0.110218H4.45373V7.64456C4.4683 7.64732 4.48287 7.651 4.49744 7.65375C4.52384 7.59494 4.55116 7.53705 4.57575 7.47824C5.53281 5.23696 6.48896 2.99567 7.44602 0.754392C7.52433 0.571524 7.61266 0.394169 7.68824 0.210382C7.72284 0.12584 7.77293 0.0900019 7.86035 0.0964345C7.90588 0.10011 7.95141 0.0964345 7.99694 0.0964345C9.23356 0.0964345 10.4702 0.0964345 11.7068 0.0964345C11.7878 0.0964345 11.8698 0.0964345 11.9791 0.0964345C11.9436 0.184652 11.9235 0.24714 11.8944 0.306871C10.7315 2.71448 9.56867 5.12117 8.4049 7.52786C8.34844 7.64456 8.2938 7.76403 8.22459 7.87338C8.14537 7.99835 8.15994 8.10863 8.21913 8.2382C8.59248 9.0588 8.96128 9.88125 9.32644 10.7055C10.207 12.6969 11.0839 14.6891 11.9627 16.6814C11.9927 16.7494 12.0164 16.8192 12.0501 16.9047H7.79478C7.09543 15.0016 6.39516 13.0957 5.67942 11.1457C5.61294 11.2817 5.56286 11.38 5.51551 11.4793C5.20317 12.1345 4.89629 12.7915 4.57757 13.444C4.48742 13.6277 4.45008 13.8106 4.451 14.0165C4.45828 14.9271 4.45373 15.8387 4.45282 16.7494C4.45282 16.7935 4.45282 16.8385 4.45282 16.8982H0.875Z" fill="#172337"/>
<path d="M144.467 4.00271C143.352 4.5945 142.26 5.17343 141.15 5.76247C141.117 5.68528 141.089 5.62646 141.066 5.5649C140.957 5.28738 140.859 5.00618 140.741 4.73234C140.604 4.41071 140.394 4.14514 140.12 3.9246C139.651 3.546 139.086 3.6627 138.737 3.95584C138.553 4.11022 138.39 4.29952 138.252 4.49801C137.853 5.07235 137.648 5.7303 137.516 6.41032C137.335 7.33844 137.294 8.27575 137.349 9.22134C137.389 9.89675 137.481 10.5611 137.65 11.2145C137.768 11.6749 137.926 12.1215 138.174 12.5295C138.31 12.7528 138.468 12.9568 138.678 13.1167C139.165 13.487 139.732 13.5229 140.252 13.2049C140.401 13.1139 140.542 13.0055 140.667 12.8851C141.26 12.3145 141.45 11.5839 141.486 10.7642H139.456C139.406 10.5731 139.399 7.80158 139.443 7.55347H145.009C145.026 7.66466 145.05 7.77493 145.059 7.88612C145.121 8.80322 145.162 9.72124 145.068 10.6383C144.902 12.2593 144.457 13.7857 143.419 15.0658C142.207 16.5581 140.636 17.2381 138.724 16.9376C137.386 16.7281 136.314 16.0187 135.479 14.9445C134.692 13.9327 134.201 12.784 133.914 11.5371C133.645 10.3737 133.558 9.19561 133.585 8.00375C133.617 6.54724 133.909 5.14862 134.503 3.82076C134.994 2.72447 135.669 1.76418 136.621 1.01893C137.419 0.393132 138.327 0.0540448 139.331 0.0126927C140.189 -0.0222268 140.999 0.193723 141.751 0.619189C142.501 1.04282 143.103 1.62634 143.587 2.3376C143.936 2.84944 144.22 3.39621 144.465 4.00271H144.467Z" fill="#172337"/>
<path d="M81.9016 16.902C81.7669 16.1467 81.6339 15.3959 81.4973 14.6323H78.3029C78.1444 15.3738 78.0415 16.1356 77.8876 16.8993H74.1377C74.1295 16.0823 77.1528 2.03091 77.7483 0.114014H82.0473C83.4415 5.66438 84.5761 11.2726 85.6934 16.902H81.9007H81.9016ZM80.9 11.3893C80.6231 9.12876 80.2944 6.90494 79.8983 4.68479C79.5012 6.9077 79.1716 9.13703 78.9002 11.3893H80.9Z" fill="#172337"/>
<path d="M22.3792 7.1731V10.7588H17.4701V13.3244H22.6651V16.8752C22.5085 16.923 14.3275 16.9432 13.9414 16.8963C13.8841 16.7098 13.8722 0.431792 13.9314 0.111084H22.6679V3.67655H17.471V7.16207C18.0128 7.18504 18.5555 7.16942 19.0983 7.17218C19.6373 7.17493 20.1755 7.17218 20.7146 7.17218C21.2537 7.17218 21.8064 7.17218 22.3792 7.17218V7.1731Z" fill="#172337"/>
<path d="M25.1184 0.111084H33.8703V3.67931H28.6707V7.16483H33.5899C33.5935 8.37139 33.6008 9.55314 33.5835 10.7533H28.7062C28.657 10.8994 28.6379 13.0432 28.6816 13.3272H33.8676V16.877C33.7055 16.9212 25.4617 16.9386 25.1393 16.8954C25.0838 16.6942 25.061 0.751581 25.1184 0.112003V0.111084Z" fill="#172337"/>
<path d="M72.5669 16.9019H63.8505C63.8414 16.8918 63.8359 16.8872 63.8304 16.8817C63.825 16.8762 63.8177 16.8698 63.8168 16.8633C63.8122 16.81 63.8049 16.7567 63.8049 16.7034C63.8049 11.199 63.8058 5.69367 63.8077 0.189251C63.8077 0.168116 63.8195 0.14698 63.8304 0.112061H72.5705V3.67018C71.9941 3.69315 71.4213 3.67753 70.8476 3.68028C70.2712 3.68304 69.6948 3.68028 69.1175 3.68028C68.5401 3.68028 67.9674 3.68028 67.3746 3.68028V7.16029C67.9136 7.18602 68.4573 7.16856 68.9991 7.17132C69.5382 7.17499 70.0764 7.17132 70.6154 7.17132C71.1545 7.17132 71.7073 7.17132 72.2491 7.17132C72.3119 7.37991 72.3256 10.1275 72.2682 10.7552H67.3736V13.3208H72.5678V16.9001L72.5669 16.9019Z" fill="#172337"/>
<path d="M36.3262 0.372089C36.6058 0.314196 36.8917 0.244357 37.1822 0.197491C37.8943 0.0835436 38.6101 -0.00651201 39.3331 0.00635308C40.455 0.0265696 41.5532 0.196572 42.6095 0.590795C43.1877 0.806745 43.7332 1.08978 44.2395 1.44632C44.9297 1.93244 45.4679 2.55732 45.8959 3.28419C46.3667 4.08275 46.5925 4.95573 46.6845 5.87283C46.7983 7.01231 46.6007 8.10217 46.1463 9.1424C45.7138 10.1339 45.0208 10.9159 44.1402 11.5289C43.3161 12.1023 42.4082 12.4745 41.4211 12.6362C40.9212 12.718 40.4149 12.7602 39.8758 12.8246C39.8503 13.0157 39.8676 13.2427 39.864 13.4687C39.8612 13.6985 39.864 13.9282 39.864 14.1579C39.864 14.3877 39.864 14.6174 39.864 14.8471C39.864 15.0769 39.864 15.291 39.864 15.5134C39.864 15.7431 39.864 15.9728 39.864 16.2026C39.864 16.4305 39.864 16.6584 39.864 16.9H36.3417C36.2907 16.7163 36.2725 0.700149 36.3262 0.373008V0.372089ZM39.8758 9.48976C40.2073 9.44657 40.5187 9.42727 40.8192 9.36294C41.5231 9.21224 42.1214 8.87683 42.5539 8.27585C42.8663 7.84211 43.0147 7.35048 43.0612 6.82393C43.1449 5.88018 42.9164 5.04855 42.1906 4.40162C41.8081 4.06161 41.3619 3.84474 40.872 3.70966C40.5488 3.62052 40.2209 3.60674 39.8758 3.60214V9.48884V9.48976Z" fill="#172337"/>
<path d="M53.9995 0.111084H57.6374C57.6547 0.73504 57.6429 1.359 57.6447 1.98295C57.6465 2.61059 57.6447 3.23822 57.6447 3.86585V13.3272H62.1213V16.8973H54.005C53.9504 16.6969 53.9422 0.405143 53.9986 0.111084H53.9995Z" fill="#172337"/>
<path d="M114.19 0.111026H117.874V16.8733C117.71 16.9211 114.502 16.9367 114.197 16.8926C114.144 16.696 114.135 0.413356 114.19 0.110107V0.111026Z" fill="#172337"/>
</g>
<defs>
<clipPath id="clip0_2505_13377">
<rect width="144.25" height="17.0076" fill="white" transform="translate(0.875)"/>
</clipPath>
</defs>
</svg>
