<svg width="16" height="16" viewBox="0 0 16 16" fill="none" xmlns="http://www.w3.org/2000/svg">
<path d="M15.3333 6.47332C15.3663 5.51909 15.1576 4.572 14.7266 3.71999C14.4342 3.37039 14.0285 3.13446 13.58 3.05332C11.725 2.88501 9.86233 2.81602 7.99998 2.84666C6.14441 2.81463 4.28845 2.88139 2.43998 3.04666C2.07452 3.11313 1.73632 3.28455 1.46664 3.53999C0.866644 4.09332 0.799977 5.03999 0.733311 5.83999C0.636585 7.27837 0.636585 8.72161 0.733311 10.16C0.752597 10.6103 0.81964 11.0572 0.93331 11.4933C1.01369 11.83 1.17633 12.1416 1.40664 12.4C1.67816 12.669 2.02423 12.8501 2.39998 12.92C3.83725 13.0974 5.28546 13.1709 6.73331 13.14C9.06664 13.1733 11.1133 13.14 13.5333 12.9533C13.9183 12.8878 14.2741 12.7064 14.5533 12.4333C14.74 12.2466 14.8794 12.0181 14.96 11.7667C15.1984 11.0351 15.3155 10.2694 15.3066 9.49999C15.3333 9.12666 15.3333 6.87332 15.3333 6.47332ZM6.49331 9.89999V5.77332L10.44 7.84666C9.33331 8.45999 7.87331 9.15332 6.49331 9.89999Z" fill="#C1C1C1"/>
</svg>
