<svg width="14" height="14" viewBox="0 0 14 14" fill="none" xmlns="http://www.w3.org/2000/svg">
<g clip-path="url(#clip0_4455_98)">
<path d="M7 0.21875C3.2375 0.21875 0.21875 3.2375 0.21875 7C0.21875 10.7625 3.2375 13.7812 7 13.7812C10.7625 13.7812 13.7812 10.7625 13.7812 7C13.7812 3.2375 10.7625 0.21875 7 0.21875ZM10.1062 9.99687C9.975 10.1719 9.73438 10.2375 9.51562 10.15C7.91875 9.16563 5.90625 8.94687 3.56562 9.47188C3.325 9.5375 3.10625 9.38438 3.0625 9.16563C2.99688 8.925 3.15 8.70625 3.36875 8.64062C5.95 8.05 8.1375 8.3125 9.975 9.40625C10.1719 9.55937 10.2375 9.8 10.1062 9.99687ZM10.9375 8.18125C10.7844 8.42188 10.4344 8.4875 10.2375 8.33437C8.42188 7.21875 5.64375 6.89062 3.47812 7.56875C3.19375 7.65625 2.8875 7.50313 2.82187 7.19688C2.73438 6.9125 2.8875 6.60625 3.19375 6.54063C5.66563 5.775 8.70625 6.16875 10.8063 7.4375C11.0031 7.59062 11.0906 7.89688 10.9375 8.18125ZM11.0031 6.23438C8.81563 4.94375 5.20625 4.8125 3.10625 5.46875C2.8 5.55625 2.42812 5.38125 2.34063 5.03125C2.25312 4.725 2.42812 4.35313 2.77813 4.26562C5.18437 3.56562 9.12187 3.675 11.6594 5.18438C11.9656 5.35938 12.0531 5.775 11.9 6.0375C11.725 6.32188 11.3094 6.40938 11.0031 6.23438Z" fill="#C1C1C1"/>
</g>
<defs>
<clipPath id="clip0_4455_98">
<rect width="14" height="14" fill="white"/>
</clipPath>
</defs>
</svg>
