<svg width="16" height="16" viewBox="0 0 16 16" fill="none" xmlns="http://www.w3.org/2000/svg">
<path d="M11.56 3.64004C11.4018 3.64004 11.2471 3.68696 11.1156 3.77486C10.984 3.86277 10.8815 3.98771 10.8209 4.13389C10.7604 4.28007 10.7445 4.44093 10.7754 4.59611C10.8063 4.7513 10.8825 4.89384 10.9944 5.00573C11.1062 5.11761 11.2488 5.1938 11.404 5.22467C11.5592 5.25554 11.72 5.23969 11.8662 5.17914C12.0124 5.11859 12.1373 5.01606 12.2252 4.8845C12.3131 4.75294 12.36 4.59827 12.36 4.44004C12.36 4.22787 12.2758 4.02438 12.1257 3.87436C11.9757 3.72433 11.7722 3.64004 11.56 3.64004ZM14.6267 5.25337C14.6137 4.70024 14.5101 4.15298 14.32 3.63337C14.1505 3.1888 13.8867 2.78623 13.5467 2.45337C13.2166 2.11166 12.8131 1.84949 12.3667 1.68671C11.8485 1.49081 11.3006 1.38485 10.7467 1.37337C10.04 1.33337 9.81337 1.33337 8.00004 1.33337C6.18671 1.33337 5.96004 1.33337 5.25337 1.37337C4.69948 1.38485 4.1516 1.49081 3.63337 1.68671C3.18782 1.85114 2.78466 2.11308 2.45337 2.45337C2.11166 2.78349 1.84949 3.187 1.68671 3.63337C1.49081 4.1516 1.38485 4.69948 1.37337 5.25337C1.33337 5.96004 1.33337 6.18671 1.33337 8.00004C1.33337 9.81337 1.33337 10.04 1.37337 10.7467C1.38485 11.3006 1.49081 11.8485 1.68671 12.3667C1.84949 12.8131 2.11166 13.2166 2.45337 13.5467C2.78466 13.887 3.18782 14.1489 3.63337 14.3134C4.1516 14.5093 4.69948 14.6152 5.25337 14.6267C5.96004 14.6667 6.18671 14.6667 8.00004 14.6667C9.81337 14.6667 10.04 14.6667 10.7467 14.6267C11.3006 14.6152 11.8485 14.5093 12.3667 14.3134C12.8131 14.1506 13.2166 13.8884 13.5467 13.5467C13.8882 13.2151 14.1523 12.8122 14.32 12.3667C14.5101 11.8471 14.6137 11.2998 14.6267 10.7467C14.6267 10.04 14.6667 9.81337 14.6667 8.00004C14.6667 6.18671 14.6667 5.96004 14.6267 5.25337ZM13.4267 10.6667C13.4219 11.0899 13.3452 11.5092 13.2 11.9067C13.0936 12.1968 12.9226 12.459 12.7 12.6734C12.4838 12.8937 12.2222 13.0643 11.9334 13.1734C11.5358 13.3185 11.1166 13.3952 10.6934 13.4C10.0267 13.4334 9.78004 13.44 8.02671 13.44C6.27337 13.44 6.02671 13.44 5.36004 13.4C4.92063 13.4083 4.4831 13.3406 4.06671 13.2C3.79056 13.0854 3.54094 12.9152 3.33337 12.7C3.1121 12.4859 2.94327 12.2235 2.84004 11.9334C2.67728 11.5301 2.587 11.1013 2.57337 10.6667C2.57337 10 2.53337 9.75337 2.53337 8.00004C2.53337 6.24671 2.53337 6.00004 2.57337 5.33337C2.57636 4.90074 2.65534 4.472 2.80671 4.06671C2.92407 3.78531 3.10422 3.53448 3.33337 3.33337C3.53592 3.10415 3.78623 2.9221 4.06671 2.80004C4.47307 2.6534 4.90137 2.57676 5.33337 2.57337C6.00004 2.57337 6.24671 2.53337 8.00004 2.53337C9.75337 2.53337 10 2.53337 10.6667 2.57337C11.0899 2.57823 11.5092 2.65487 11.9067 2.80004C12.2097 2.91248 12.4816 3.09527 12.7 3.33337C12.9185 3.53816 13.0892 3.78853 13.2 4.06671C13.3482 4.47266 13.4249 4.90123 13.4267 5.33337C13.46 6.00004 13.4667 6.24671 13.4667 8.00004C13.4667 9.75337 13.46 10 13.4267 10.6667ZM8.00004 4.58004C7.32391 4.58136 6.66335 4.78306 6.10181 5.15965C5.54027 5.53625 5.10296 6.07084 4.84513 6.69588C4.5873 7.32091 4.52052 8.00835 4.65324 8.67133C4.78595 9.3343 5.1122 9.94306 5.59076 10.4207C6.06932 10.8983 6.67871 11.2234 7.34195 11.3548C8.00518 11.4862 8.69248 11.4181 9.31702 11.1591C9.94155 10.9 10.4753 10.4617 10.8508 9.8994C11.2263 9.33712 11.4267 8.67617 11.4267 8.00004C11.4276 7.55011 11.3395 7.10444 11.1675 6.68868C10.9956 6.27291 10.7431 5.89525 10.4246 5.57741C10.1062 5.25957 9.72801 5.00783 9.3119 4.83666C8.8958 4.66549 8.44997 4.57828 8.00004 4.58004ZM8.00004 10.22C7.56097 10.22 7.13175 10.0898 6.76667 9.8459C6.4016 9.60197 6.11705 9.25525 5.94903 8.8496C5.781 8.44395 5.73704 7.99758 5.8227 7.56694C5.90836 7.1363 6.11979 6.74074 6.43026 6.43026C6.74074 6.11979 7.1363 5.90836 7.56694 5.8227C7.99758 5.73704 8.44395 5.781 8.8496 5.94903C9.25525 6.11705 9.60197 6.4016 9.8459 6.76667C10.0898 7.13175 10.22 7.56097 10.22 8.00004C10.22 8.29157 10.1626 8.58025 10.0511 8.8496C9.93949 9.11894 9.77596 9.36367 9.56982 9.56982C9.36367 9.77596 9.11894 9.93949 8.8496 10.0511C8.58025 10.1626 8.29157 10.22 8.00004 10.22Z" fill="#C1C1C1"/>
</svg>
