<svg width="13" height="14" viewBox="0 0 13 14" fill="none" xmlns="http://www.w3.org/2000/svg">
<g clip-path="url(#clip0_4455_92)">
<path d="M6.78708 0.510833C7.49667 0.5 8.20083 0.505417 8.905 0.5C8.94833 1.32875 9.24625 2.17375 9.85292 2.75875C10.4596 3.36 11.3154 3.63625 12.1496 3.72833V5.91125C11.3696 5.88417 10.5842 5.72167 9.87458 5.38583C9.56583 5.245 9.27875 5.06625 8.99708 4.88208C8.99167 6.46375 9.0025 8.04542 8.98625 9.62167C8.94292 10.38 8.69375 11.1329 8.255 11.7558C7.54542 12.7958 6.31583 13.4729 5.05375 13.4946C4.27917 13.5379 3.50458 13.3267 2.84375 12.9367C1.74958 12.2921 0.980419 11.1112 0.866669 9.84375C0.855834 9.57292 0.850419 9.30208 0.861252 9.03667C0.958752 8.0075 1.46792 7.02167 2.25875 6.35C3.15792 5.57 4.41458 5.19625 5.59 5.41833C5.60083 6.22 5.56833 7.02167 5.56833 7.82333C5.03208 7.65 4.40375 7.69875 3.9325 8.02375C3.59125 8.24583 3.33125 8.58708 3.19583 8.97167C3.08208 9.24792 3.11458 9.55125 3.12 9.84375C3.25 10.7321 4.10583 11.4796 5.01583 11.3983C5.6225 11.3929 6.20208 11.0408 6.51625 10.5262C6.61917 10.3475 6.73292 10.1633 6.73833 9.95208C6.7925 8.9825 6.77083 8.01833 6.77625 7.04875C6.78167 4.86583 6.77083 2.68833 6.78708 0.510833Z" fill="#C1C1C1"/>
</g>
<defs>
<clipPath id="clip0_4455_92">
<rect width="13" height="13" fill="white" transform="translate(0 0.5)"/>
</clipPath>
</defs>
</svg>
