<svg width="252" height="29" viewBox="0 0 252 29" fill="none" xmlns="http://www.w3.org/2000/svg">
<g clip-path="url(#clip0_5488_1776)">
<path d="M66.4798 28.8133H60.5074C60.5044 28.3141 60.5013 27.815 60.4998 27.3158C60.4998 26.7969 60.4998 26.2796 60.4998 25.7607V19.6175C60.4998 19.1122 60.4998 18.6055 60.4998 18.1003C60.4998 17.5814 60.4998 17.064 60.4998 16.5451V15.0507C60.4771 15.0461 60.4529 15.0431 60.4302 15.0385C58.9458 18.3066 57.4614 21.5747 55.9377 24.9308C54.4155 21.5838 52.9311 18.3203 51.4467 15.0552C51.4195 15.0583 51.3938 15.0628 51.3665 15.0658C51.3605 17.3432 51.365 19.622 51.3635 21.8994C51.3635 24.1873 51.3635 26.4738 51.3635 28.7556C51.0715 28.8497 46.4549 28.8876 45.432 28.8103C45.3548 28.5523 45.3245 0.908737 45.4047 0.330679H51.0018C52.6557 4.15557 54.2672 8.03205 55.9241 11.9449C55.9876 11.822 56.0315 11.7492 56.0633 11.6718C57.4932 8.28694 58.9216 4.90204 60.3515 1.51866C60.4847 1.20459 60.639 0.899634 60.7571 0.581019C60.8357 0.368609 60.9568 0.298818 61.1807 0.301852C61.8995 0.315507 62.6182 0.306404 63.337 0.306404C64.2449 0.306404 65.1527 0.306404 66.0606 0.306404C66.1968 0.306404 66.3315 0.306404 66.4586 0.306404C66.5509 0.700879 66.566 27.9212 66.4798 28.8148V28.8133Z" fill="white"/>
<path d="M233.629 0.618904C234.179 0.51725 234.719 0.403459 235.262 0.316978C236.471 0.125809 237.683 -0.0228773 238.91 0.00291529C240.711 0.0393284 242.477 0.292703 244.175 0.910208C245.671 1.45489 247.036 2.2408 248.19 3.34685C249.549 4.64862 250.487 6.21893 250.962 8.05021C251.681 10.8191 251.43 13.4879 250.091 16.0277C249.533 17.0882 248.77 17.9955 247.876 18.7906C247.764 18.8892 247.653 18.9908 247.535 19.0955C249.023 22.3332 250.502 25.5513 251.999 28.8102H245.005C244.04 26.4358 243.065 24.0431 242.095 21.6566C241.3 21.7658 240.51 21.8735 239.69 21.9858V28.7662C239.41 28.8406 234.22 28.8664 233.628 28.7951V0.618904H233.629ZM239.732 16.2477C241.074 16.2022 242.289 15.9048 243.356 15.1265C244.191 14.5181 244.75 13.7049 245.01 12.7065C245.123 12.2711 245.172 11.8129 245.205 11.3623C245.281 10.3594 245.031 9.42329 244.471 8.59489C243.656 7.38719 242.489 6.68472 241.083 6.36155C240.644 6.2599 240.198 6.24169 239.73 6.23259V16.2477H239.732Z" fill="white"/>
<path d="M119.687 0.323024C119.829 0.316955 119.953 0.306335 120.075 0.306335C121.702 0.306335 123.327 0.288128 124.954 0.309369C126.998 0.336679 128.988 0.665914 130.891 1.45486C133.007 2.33181 134.623 3.77317 135.789 5.73492C136.62 7.13227 137.08 8.66163 137.38 10.2471C137.769 12.309 137.829 14.3891 137.669 16.4753C137.496 18.7086 137.029 20.8752 136.012 22.8885C135.326 24.2449 134.408 25.4283 133.235 26.3994C131.987 27.4326 130.533 28.0531 128.973 28.4324C127.817 28.7116 126.644 28.8436 125.452 28.8345C123.675 28.8193 121.897 28.8299 120.119 28.8314C119.983 28.8314 119.848 28.8314 119.688 28.8314V0.323024H119.687ZM125.89 6.54056V22.7778C126.217 22.7398 126.515 22.714 126.81 22.667C128.281 22.4334 129.411 21.693 130.156 20.3851C130.477 19.8222 130.713 19.2229 130.87 18.5963C131.406 16.4449 131.436 14.2677 131.146 12.0829C130.994 10.9481 130.651 9.86477 130.045 8.8801C129.516 8.01984 128.818 7.3462 127.888 6.932C127.257 6.65132 126.599 6.53601 125.892 6.54056H125.89Z" fill="white"/>
<path d="M152.626 0.323242H158.848C158.86 0.433999 158.878 0.529583 158.88 0.626685C158.887 1.38529 158.896 2.1439 158.896 2.9025C158.896 8.51467 158.896 14.1284 158.898 19.7405C158.898 21.2107 158.683 22.6339 158.059 23.9796C156.867 26.5498 154.886 28.1429 152.132 28.7543C150.091 29.2064 148.095 29.0532 146.184 28.1717C143.603 26.9792 142.049 24.9446 141.392 22.1939C141.215 21.4535 141.146 20.7009 141.146 19.9393C141.15 13.5685 141.149 7.19622 141.149 0.82544C141.149 0.664615 141.149 0.505308 141.149 0.326277H147.504C147.504 0.50379 147.504 0.664615 147.504 0.823922C147.504 7.28421 147.504 13.743 147.501 20.2033C147.501 20.6509 147.546 21.0833 147.705 21.505C148.103 22.555 149.12 23.1543 150.338 23.0511C151.376 22.9631 152.332 22.1089 152.511 21.0787C152.571 20.7328 152.585 20.3747 152.585 20.0227C152.589 14.0055 152.588 7.9882 152.588 1.97094C152.588 1.52791 152.592 1.0864 152.598 0.643374C152.598 0.535652 152.617 0.429447 152.627 0.323242H152.626Z" fill="white"/>
<path d="M211.054 0.326172H217.409C217.409 0.497617 217.409 0.658441 217.409 0.817749C217.409 7.27804 217.409 13.7368 217.408 20.1971C217.408 20.6037 217.44 21.0012 217.571 21.3912C217.947 22.5018 218.941 23.1344 220.201 23.0525C221.268 22.9827 222.241 22.1164 222.421 21.0452C222.48 20.6993 222.491 20.3412 222.491 19.9892C222.495 13.884 222.494 7.7772 222.494 1.67194V0.330724H228.752C228.764 0.429342 228.784 0.524927 228.785 0.622028C228.794 1.10298 228.802 1.58242 228.802 2.06338C228.802 7.95472 228.802 13.8445 228.803 19.7359C228.803 21.2182 228.584 22.6535 227.95 24.0099C226.756 26.5633 224.781 28.1443 222.043 28.7527C220.003 29.2063 218.006 29.0546 216.095 28.1731C213.512 26.9821 211.958 24.9475 211.299 22.1983C211.122 21.4579 211.051 20.7054 211.053 19.9437C211.057 13.573 211.056 7.20066 211.056 0.829886V0.326172H211.054Z" fill="white"/>
<path d="M207.61 14.6167C207.631 17.1671 207.256 19.6554 206.371 22.051C205.752 23.7276 204.862 25.2463 203.577 26.5086C202.211 27.8513 200.595 28.704 198.687 28.9331C196.983 29.1379 195.375 28.795 193.878 27.9545C192.365 27.1064 191.233 25.8608 190.318 24.4133C189.383 22.9356 188.827 21.3 188.451 19.5992C187.88 17.0321 187.765 14.4422 188.087 11.8372C188.32 9.94823 188.785 8.11392 189.593 6.38126C190.421 4.60309 191.543 3.0434 193.097 1.83418C194.491 0.749371 196.077 0.1349 197.858 0.160693C199.339 0.181934 200.699 0.618891 201.939 1.46398C203.556 2.56699 204.72 4.04931 205.626 5.75617C206.537 7.47062 207.052 9.30948 207.363 11.2166C207.548 12.3424 207.601 13.4773 207.611 14.6152L207.61 14.6167ZM194.258 14.7517C194.338 15.6818 194.4 16.6133 194.506 17.5404C194.626 18.5979 194.875 19.6265 195.311 20.6036C195.576 21.1968 195.91 21.743 196.399 22.18C196.755 22.4986 197.154 22.7186 197.644 22.752C198.25 22.7945 198.757 22.5866 199.183 22.1694C199.708 21.6566 200.052 21.0269 200.317 20.3518C200.82 19.0712 201.054 17.7315 201.159 16.366C201.268 14.952 201.253 13.5395 201.078 12.1315C200.928 10.9238 200.663 9.74492 200.171 8.62522C199.931 8.07751 199.633 7.56317 199.182 7.16263C198.968 6.97298 198.725 6.79395 198.465 6.68622C197.67 6.35699 196.877 6.58609 196.248 7.27187C195.655 7.9182 195.285 8.68591 195.028 9.51431C194.499 11.2181 194.296 12.966 194.258 14.7502V14.7517Z" fill="white"/>
<path d="M70.4952 13.7018C70.4997 12.4941 70.7827 10.3973 71.4121 8.35512C71.8661 6.88494 72.5092 5.49821 73.4004 4.24651C74.3476 2.91743 75.4734 1.7598 76.9563 1.02243C79.5725 -0.277819 82.107 -0.129132 84.5477 1.49732C86.1668 2.57606 87.3047 4.06748 88.2065 5.76372C89.1174 7.47817 89.6394 9.31703 89.9406 11.2257C90.2235 13.0205 90.2402 14.8215 90.11 16.63C89.9648 18.6373 89.5396 20.5793 88.7951 22.444C88.1914 23.9596 87.3561 25.3403 86.1774 26.4843C84.8292 27.7921 83.2585 28.6751 81.3716 28.9194C79.804 29.1227 78.3105 28.8648 76.8867 28.1805C75.5476 27.5372 74.4989 26.5526 73.588 25.3995C72.4562 23.9688 71.7496 22.3317 71.2729 20.5854C70.7403 18.6373 70.4906 16.6482 70.4952 13.7003V13.7018ZM83.8441 14.6424C83.7821 13.7989 83.7488 12.9538 83.6534 12.1148C83.5173 10.9192 83.2449 9.75247 82.7607 8.64491C82.5262 8.10781 82.2281 7.61472 81.8089 7.199C80.8904 6.29019 79.6845 6.32661 78.8175 7.28852C78.3907 7.76189 78.0654 8.29747 77.8324 8.89221C77.2846 10.2941 77.0289 11.7597 76.9351 13.2496C76.8352 14.8533 76.87 16.4555 77.1545 18.0456C77.3452 19.1076 77.616 20.1408 78.1365 21.0936C78.3938 21.564 78.7161 21.9812 79.1382 22.3135C79.9553 22.9537 80.9767 22.9264 81.7166 22.2027C82.0193 21.9069 82.2977 21.5594 82.4898 21.1847C82.7758 20.6263 83.0164 20.0377 83.201 19.4368C83.6807 17.8787 83.8002 16.2674 83.8456 14.6424H83.8441Z" fill="white"/>
<path d="M31.8145 0.332275V6.36623H22.9067V12.2894C25.6833 12.2925 28.4629 12.2894 31.2335 12.2909C31.3258 12.6187 31.3591 17.316 31.2789 18.3416C31.1412 18.3477 30.9975 18.3583 30.8522 18.3583C28.3555 18.3583 25.8588 18.3583 23.3621 18.3583H22.8991V22.7552H31.8115V28.7664C31.5225 28.8407 17.2506 28.8574 16.7891 28.7831V0.332275H31.8115H31.8145Z" fill="white"/>
<path d="M102.812 28.8134H96.5162C96.5071 28.6844 96.492 28.5631 96.492 28.4432C96.489 23.9052 96.4844 19.3657 96.4844 14.8277C96.4844 12.1863 96.4905 9.54329 96.492 6.90182C96.492 6.73948 96.4784 6.57866 96.4693 6.3799H91.1748V0.367189C91.4441 0.288293 107.25 0.250363 108.096 0.327741C108.178 0.585667 108.202 5.83371 108.117 6.37232H102.814V28.8149L102.812 28.8134Z" fill="white"/>
<path d="M0 0.324707H6.29921C6.3098 2.82962 6.30223 5.31482 6.30374 7.80001C6.30374 10.2776 6.30374 12.7552 6.30374 15.2328V22.7521C6.80459 22.7643 7.30393 22.7567 7.80327 22.7582C8.32076 22.7582 8.83674 22.7582 9.35424 22.7582H12.4183C12.9207 22.7582 13.4231 22.7582 13.9148 22.7582C14.0056 23.095 14.0314 28.0457 13.9557 28.7618C13.6939 28.8422 0.643085 28.8741 0.00151314 28.7922V0.324707H0Z" fill="white"/>
<path d="M178.275 0.324568H184.481C184.488 0.471737 184.5 0.605252 184.5 0.740284C184.503 1.77654 184.505 2.81431 184.505 3.85057C184.505 9.16081 184.503 14.4711 184.506 19.7813C184.506 20.9753 184.411 22.1588 184.045 23.2997C183.17 26.0277 181.426 27.8969 178.635 28.6934C176.59 29.2775 174.644 28.9665 172.784 27.9788C171.831 27.4721 170.976 26.8348 170.168 26.0413C171.661 24.6273 173.185 23.2739 174.715 21.869C174.81 21.9934 174.897 22.0951 174.972 22.2043C175.267 22.6306 175.683 22.8916 176.169 23.0175C176.773 23.1753 177.29 22.9932 177.687 22.5032C178.006 22.1087 178.172 21.649 178.228 21.1498C178.259 20.8873 178.272 20.6203 178.272 20.3548C178.275 14.1084 178.275 7.8636 178.275 1.61723C178.275 1.20152 178.275 0.784283 178.275 0.321533V0.324568Z" fill="white"/>
</g>
<defs>
<clipPath id="clip0_5488_1776">
<rect width="252" height="29" fill="white"/>
</clipPath>
</defs>
</svg>
