<svg width="24" height="25" viewBox="0 0 24 25" fill="none" xmlns="http://www.w3.org/2000/svg">
<path d="M12.002 2.5C10.0241 2.5 8.09075 3.08649 6.44626 4.1853C4.80176 5.28412 3.52004 6.8459 2.76316 8.67317C2.00629 10.5004 1.80825 12.5111 2.1941 14.4509C2.57996 16.3907 3.53236 18.1725 4.93089 19.5711C6.32941 20.9696 8.11125 21.922 10.0511 22.3079C11.9909 22.6937 14.0015 22.4957 15.8288 21.7388C17.6561 20.9819 19.2178 19.7002 20.3167 18.0557C21.4155 16.4112 22.002 14.4778 22.002 12.5C22.002 11.1868 21.7433 9.88642 21.2408 8.67317C20.7382 7.45991 20.0016 6.35752 19.073 5.42893C18.1444 4.50035 17.042 3.76375 15.8288 3.2612C14.6155 2.75866 13.3152 2.5 12.002 2.5ZM12.002 20.5C10.4197 20.5 8.87299 20.0308 7.5574 19.1518C6.2418 18.2727 5.21642 17.0233 4.61092 15.5615C4.00542 14.0997 3.84699 12.4911 4.15568 10.9393C4.46436 9.38743 5.22628 7.96197 6.3451 6.84315C7.46392 5.72433 8.88939 4.9624 10.4412 4.65372C11.9931 4.34504 13.6016 4.50346 15.0634 5.10896C16.5252 5.71447 17.7747 6.73984 18.6537 8.05544C19.5328 9.37103 20.002 10.9177 20.002 12.5C20.002 14.6217 19.1591 16.6566 17.6588 18.1569C16.1585 19.6571 14.1237 20.5 12.002 20.5ZM16.002 11.5H13.002V8.5C13.002 8.23478 12.8966 7.98043 12.7091 7.79289C12.5215 7.60536 12.2672 7.5 12.002 7.5C11.7367 7.5 11.4824 7.60536 11.2949 7.79289C11.1073 7.98043 11.002 8.23478 11.002 8.5V11.5H8.00196C7.73674 11.5 7.48239 11.6054 7.29485 11.7929C7.10731 11.9804 7.00196 12.2348 7.00196 12.5C7.00196 12.7652 7.10731 13.0196 7.29485 13.2071C7.48239 13.3946 7.73674 13.5 8.00196 13.5H11.002V16.5C11.002 16.7652 11.1073 17.0196 11.2949 17.2071C11.4824 17.3946 11.7367 17.5 12.002 17.5C12.2672 17.5 12.5215 17.3946 12.7091 17.2071C12.8966 17.0196 13.002 16.7652 13.002 16.5V13.5H16.002C16.2672 13.5 16.5215 13.3946 16.7091 13.2071C16.8966 13.0196 17.002 12.7652 17.002 12.5C17.002 12.2348 16.8966 11.9804 16.7091 11.7929C16.5215 11.6054 16.2672 11.5 16.002 11.5Z" fill="#22467C"/>
</svg>
