<svg width="16" height="16" viewBox="0 0 16 16" fill="none" xmlns="http://www.w3.org/2000/svg">
<path d="M4.66658 6.66658C4.53473 6.66658 4.40584 6.70568 4.29621 6.77894C4.18657 6.85219 4.10112 6.95631 4.05067 7.07813C4.00021 7.19995 3.987 7.33399 4.01273 7.46331C4.03845 7.59263 4.10195 7.71142 4.19518 7.80466C4.28842 7.89789 4.4072 7.96138 4.53653 7.98711C4.66585 8.01283 4.79989 7.99963 4.92171 7.94917C5.04352 7.89871 5.14764 7.81326 5.2209 7.70363C5.29415 7.594 5.33325 7.46511 5.33325 7.33325C5.33325 7.15644 5.26301 6.98687 5.13799 6.86185C5.01297 6.73682 4.8434 6.66658 4.66658 6.66658ZM12.6666 3.99992H11.9999V1.99992C11.9999 1.82311 11.9297 1.65354 11.8047 1.52851C11.6796 1.40349 11.5101 1.33325 11.3333 1.33325H4.66658C4.48977 1.33325 4.3202 1.40349 4.19518 1.52851C4.07016 1.65354 3.99992 1.82311 3.99992 1.99992V3.99992H3.33325C2.80282 3.99992 2.29411 4.21063 1.91904 4.58571C1.54397 4.96078 1.33325 5.46949 1.33325 5.99992V9.99992C1.33325 10.5304 1.54397 11.0391 1.91904 11.4141C2.29411 11.7892 2.80282 11.9999 3.33325 11.9999H3.99992V13.9999C3.99992 14.1767 4.07016 14.3463 4.19518 14.4713C4.3202 14.5963 4.48977 14.6666 4.66658 14.6666H11.3333C11.5101 14.6666 11.6796 14.5963 11.8047 14.4713C11.9297 14.3463 11.9999 14.1767 11.9999 13.9999V11.9999H12.6666C13.197 11.9999 13.7057 11.7892 14.0808 11.4141C14.4559 11.0391 14.6666 10.5304 14.6666 9.99992V5.99992C14.6666 5.46949 14.4559 4.96078 14.0808 4.58571C13.7057 4.21063 13.197 3.99992 12.6666 3.99992ZM5.33325 2.66659H10.6666V3.99992H5.33325V2.66659ZM10.6666 13.3333H5.33325V10.6666H10.6666V13.3333ZM13.3333 9.99992C13.3333 10.1767 13.263 10.3463 13.138 10.4713C13.013 10.5963 12.8434 10.6666 12.6666 10.6666H11.9999V9.99992C11.9999 9.82311 11.9297 9.65354 11.8047 9.52851C11.6796 9.40349 11.5101 9.33325 11.3333 9.33325H4.66658C4.48977 9.33325 4.3202 9.40349 4.19518 9.52851C4.07016 9.65354 3.99992 9.82311 3.99992 9.99992V10.6666H3.33325C3.15644 10.6666 2.98687 10.5963 2.86185 10.4713C2.73682 10.3463 2.66659 10.1767 2.66659 9.99992V5.99992C2.66659 5.82311 2.73682 5.65354 2.86185 5.52851C2.98687 5.40349 3.15644 5.33325 3.33325 5.33325H12.6666C12.8434 5.33325 13.013 5.40349 13.138 5.52851C13.263 5.65354 13.3333 5.82311 13.3333 5.99992V9.99992Z" fill="#A2A2A2"/>
</svg>
