<svg width="113" height="22" viewBox="0 0 113 22" fill="none" xmlns="http://www.w3.org/2000/svg">
<g clip-path="url(#clip0_1_980)">
<path d="M66.2495 0.222555C66.3473 0.218395 66.4326 0.211114 66.5168 0.211114C67.6692 0.211114 68.8215 0.216315 69.9739 0.204874C70.1829 0.202794 70.2745 0.276637 70.3608 0.458644C71.7857 3.46332 73.2188 6.46488 74.6499 9.46644C74.7914 9.76286 74.9287 10.0603 75.0701 10.3567C75.0867 10.3921 75.1107 10.4243 75.1689 10.4482V0.261036C75.3676 0.200714 79.3644 0.183033 79.7191 0.235035C79.7701 0.443044 79.7888 21.1128 79.7368 21.6568C79.6681 21.663 79.5943 21.6755 79.5204 21.6755C78.3504 21.6765 77.1814 21.6724 76.0113 21.6807C75.8449 21.6817 75.769 21.6162 75.7004 21.4768C74.7675 19.558 73.8262 17.6433 72.8923 15.7244C72.2495 14.4046 71.614 13.0806 70.9744 11.7587C70.9411 11.689 70.9037 11.6214 70.8569 11.5309C70.7831 11.6266 70.8111 11.7213 70.8111 11.8055C70.8091 14.6219 70.8091 17.4394 70.808 20.2558C70.808 20.6365 70.808 21.0161 70.808 21.3968C70.808 21.481 70.8007 21.5652 70.7966 21.662H66.2516V0.222555H66.2495Z" fill="#22467C"/>
<path d="M96.877 5.1835C95.4334 5.93753 94.0169 6.67804 92.565 7.43727C92.5223 7.32494 92.489 7.23238 92.4516 7.1419C92.2904 6.75084 92.1365 6.3577 91.9638 5.97185C91.8203 5.65256 91.5894 5.39359 91.3294 5.16062C90.747 4.63956 90.0605 4.69468 89.4937 5.08885C89.1536 5.32494 88.9113 5.65464 88.6991 6.00305C88.2769 6.69884 88.0377 7.46327 87.8702 8.25266C87.7017 9.04101 87.6435 9.8408 87.6393 10.6458C87.6331 11.8148 87.6913 12.9765 87.9721 14.1175C88.1105 14.6801 88.2706 15.2386 88.5494 15.7493C88.7095 16.0426 88.8915 16.3338 89.112 16.5834C89.7901 17.3499 90.8531 17.4279 91.657 16.7945C92.4256 16.1882 92.826 15.3801 92.9623 14.4274C92.9903 14.2319 93.0028 14.0353 93.0267 13.8023C92.1292 13.7846 91.2587 13.8044 90.3518 13.7898C90.3382 12.4087 90.3372 11.0421 90.3538 9.66296H97.5946C97.6237 9.98433 97.658 10.2922 97.6778 10.6011C97.7475 11.6536 97.7673 12.7072 97.6404 13.7576C97.4563 15.2781 97.0985 16.7498 96.3393 18.0956C95.7101 19.2095 94.9009 20.1819 93.7901 20.8434C91.7673 22.0467 89.6778 22.1071 87.5676 21.0722C86.3445 20.4721 85.4292 19.5278 84.7002 18.3962C83.9181 17.1825 83.4282 15.8512 83.137 14.444C82.7834 12.7321 82.6721 11.0046 82.8312 9.26462C83.0288 7.10445 83.6664 5.08989 84.8884 3.27814C85.6414 2.16218 86.5837 1.24486 87.7995 0.643716C89.5832 -0.237199 91.372 -0.198717 93.1443 0.686358C93.968 1.09821 94.6627 1.67752 95.2504 2.38579C95.9399 3.21886 96.4526 4.15282 96.877 5.18558V5.1835Z" fill="#22467C"/>
<path d="M20.4984 13.7951V17.1025C21.2472 17.1253 21.9888 17.1097 22.7293 17.1129C23.4833 17.116 24.2363 17.1129 24.9904 17.1129C25.7444 17.1129 26.4766 17.1129 27.2379 17.1129V21.6329C27.0455 21.688 16.5452 21.713 15.9482 21.6599C15.942 21.6547 15.9347 21.6485 15.9285 21.6422C15.9233 21.636 15.915 21.6298 15.9139 21.6225C15.9077 21.5882 15.9004 21.5549 15.9004 21.5206C15.9004 14.4535 15.9025 7.38535 15.9046 0.318267C15.9046 0.293306 15.917 0.269385 15.9285 0.227783H27.2368V4.76444C26.8728 4.78317 26.5047 4.77069 26.1365 4.77277C25.7641 4.77485 25.3918 4.77277 25.0184 4.77277H21.6404C21.2691 4.77277 20.8988 4.77277 20.5088 4.77277V9.22518C20.852 9.22726 21.2036 9.23038 21.5541 9.23142C21.9004 9.23142 22.2467 9.23142 22.5941 9.23142H25.7652C26.1188 9.23142 26.4724 9.23142 26.8468 9.23142V13.7806C26.5473 13.8107 26.2478 13.7899 25.9493 13.793C25.6466 13.7972 25.3429 13.793 25.0392 13.793H21.4272C21.1256 13.793 20.825 13.793 20.4995 13.793L20.4984 13.7951Z" fill="#22467C"/>
<path d="M112.486 3.34265C111.227 4.36709 109.981 5.38009 108.713 6.41286C108.63 6.28805 108.566 6.18925 108.5 6.09044C108.179 5.60266 107.81 5.16065 107.306 4.84551C107.029 4.67183 106.73 4.56782 106.401 4.56574C105.863 4.56262 105.436 4.78311 105.169 5.24697C104.904 5.70771 104.907 6.19237 105.18 6.65311C105.288 6.83719 105.426 7.01192 105.582 7.15753C105.885 7.44042 106.2 7.71291 106.527 7.96668C107.381 8.63022 108.252 9.27193 109.103 9.93964C109.813 10.4961 110.454 11.1274 111.032 11.8211C111.716 12.6406 112.188 13.5611 112.353 14.6229C112.572 16.0468 112.343 17.3957 111.613 18.6437C110.473 20.5917 108.755 21.6827 106.526 21.9573C105.443 22.0915 104.39 21.8918 103.373 21.4893C101.981 20.9391 100.82 20.08 99.8525 18.9485C99.6954 18.7654 99.5425 18.5782 99.3657 18.3671C100.652 17.2563 101.926 16.156 103.22 15.039C103.295 15.1617 103.352 15.2553 103.409 15.3489C103.763 15.9303 104.174 16.4628 104.741 16.8528C104.939 16.989 105.151 17.1149 105.373 17.2054C105.945 17.4373 106.476 17.3395 106.952 16.9495C107.415 16.5689 107.571 16.0707 107.491 15.4903C107.436 15.1014 107.261 14.7592 106.992 14.4836C106.649 14.132 106.29 13.7899 105.907 13.4831C105.184 12.9048 104.434 12.3609 103.703 11.792C102.882 11.1534 102.094 10.4805 101.448 9.6557C100.651 8.63854 100.285 7.48826 100.223 6.20277C100.115 3.99476 101.539 1.67963 103.678 0.668706C104.643 0.212127 105.65 -0.047883 106.717 0.0155596C108.193 0.102923 109.513 0.621904 110.686 1.52154C111.279 1.97708 111.804 2.5023 112.28 3.0764C112.345 3.15545 112.406 3.23865 112.488 3.34369L112.486 3.34265Z" fill="#22467C"/>
<path d="M13.09 3.34681C11.8285 4.37021 10.5856 5.37697 9.31572 6.40765C9.24395 6.30157 9.18259 6.21317 9.12331 6.12164C8.8009 5.62346 8.42856 5.17313 7.91894 4.85175C7.66517 4.69159 7.39372 4.58654 7.09211 4.56886C6.52424 4.53766 6.06559 4.74775 5.77749 5.23865C5.49772 5.71603 5.50916 6.21629 5.80246 6.68951C5.91998 6.87775 6.06663 7.05664 6.23199 7.20537C6.59289 7.52778 6.96522 7.83875 7.34796 8.1362C8.13319 8.74671 8.93506 9.33641 9.71717 9.95108C10.4202 10.5033 11.0526 11.1305 11.6288 11.8138C12.3714 12.6957 12.8571 13.6963 12.9912 14.8434C13.1503 16.2048 12.9028 17.4935 12.1966 18.6801C11.0536 20.6021 9.349 21.6838 7.14099 21.9573C5.95534 22.104 4.81754 21.8585 3.72237 21.3863C2.44104 20.8341 1.36668 20.0114 0.462882 18.9578C0.305836 18.7748 0.15191 18.5886 -0.000976562 18.4077C0.136309 18.1944 3.17115 15.5507 3.83158 15.065C3.88046 15.1419 3.93142 15.2178 3.97822 15.2948C4.29856 15.8221 4.65217 16.3245 5.14931 16.703C5.375 16.8746 5.61525 17.0379 5.87006 17.1596C6.50968 17.4654 7.16075 17.3437 7.66309 16.8549C8.11655 16.4129 8.24447 15.7202 7.98758 15.1034C7.83158 14.728 7.59237 14.4097 7.28451 14.1518C6.66881 13.6349 6.04063 13.1315 5.41244 12.6302C4.71561 12.0748 4.00734 11.534 3.31572 10.9734C2.80298 10.5574 2.36512 10.0655 1.96574 9.5413C1.21587 8.55846 0.889299 7.44354 0.826897 6.21525C0.713532 3.98748 2.14463 1.68587 4.26943 0.673905C5.23355 0.214207 6.23927 -0.0468433 7.3074 0.0134791C8.79362 0.0977224 10.1197 0.626064 11.2991 1.52882C11.894 1.98332 12.415 2.51166 12.8914 3.08576C12.9517 3.15857 13.0058 3.23553 13.09 3.34577V3.34681Z" fill="#22467C"/>
<path d="M37.7162 21.6588H32.9258V4.77999H28.9445C28.8675 4.4815 28.8675 0.526221 28.9403 0.224609H41.7474C41.7547 1.73579 41.7516 3.23449 41.7474 4.75919C41.3917 4.78831 41.0568 4.76959 40.723 4.77271C40.3943 4.77583 40.0646 4.77271 39.7349 4.77271H38.7209C38.3943 4.77271 38.0667 4.77271 37.7141 4.77271V21.6588H37.7162Z" fill="#22467C"/>
<path d="M46.5379 4.78109H42.5764C42.4922 4.54396 42.4724 0.706202 42.5483 0.227783H55.3211C55.3856 0.417071 55.4012 4.39627 55.3336 4.76548H51.3429C51.32 5.48623 51.3346 6.18098 51.3325 6.87677C51.3294 7.58504 51.3325 8.29331 51.3325 9.00261V21.6599H46.5462C46.5317 20.7176 46.54 19.7785 46.539 18.8404C46.5379 17.9074 46.539 16.9745 46.539 16.0406V7.59024C46.539 6.66044 46.539 5.73064 46.539 4.78005L46.5379 4.78109Z" fill="#22467C"/>
<path d="M62.3827 0.226807V21.6309C62.1872 21.686 58.0915 21.7057 57.635 21.6569C57.5736 21.4541 57.559 0.586661 57.6235 0.226807H62.3827Z" fill="#22467C"/>
</g>
<defs>
<clipPath id="clip0_1_980">
<rect width="112.486" height="22" fill="white"/>
</clipPath>
</defs>
</svg>
