<svg width="8" height="9" viewBox="0 0 8 9" fill="none" xmlns="http://www.w3.org/2000/svg">
<path d="M6.15633 7.86743C6.1037 7.86763 6.05236 7.85123 6.00961 7.82055L4.00008 6.36368L1.99054 7.82055C1.94761 7.85169 1.89589 7.86837 1.84285 7.86818C1.78982 7.86798 1.73822 7.85093 1.69551 7.81948C1.65281 7.78803 1.62121 7.74381 1.60529 7.69322C1.58937 7.64263 1.58995 7.58829 1.60695 7.53805L2.3907 5.21664L0.359451 3.82368C0.315452 3.79354 0.282245 3.75012 0.26468 3.69976C0.247116 3.64941 0.246115 3.59475 0.261823 3.54379C0.277532 3.49282 0.309126 3.44822 0.351991 3.41649C0.394856 3.38476 0.446745 3.36757 0.500076 3.36743H3.00601L3.76226 1.04008C3.77855 0.989836 3.81034 0.94604 3.85307 0.914979C3.89579 0.883918 3.94725 0.867188 4.00008 0.867188C4.0529 0.867188 4.10436 0.883918 4.14709 0.914979C4.18981 0.94604 4.2216 0.989836 4.23789 1.04008L4.99414 3.36821H7.50008C7.55347 3.36818 7.60548 3.38525 7.64847 3.41692C7.69146 3.44859 7.72318 3.49319 7.73899 3.5442C7.7548 3.5952 7.75386 3.64993 7.73632 3.70036C7.71877 3.75079 7.68553 3.79428 7.64148 3.82446L5.60945 5.21664L6.39273 7.53743C6.40542 7.575 6.40899 7.61505 6.40315 7.65428C6.3973 7.69351 6.38221 7.73078 6.35911 7.76302C6.33601 7.79526 6.30558 7.82154 6.27032 7.83969C6.23506 7.85785 6.19598 7.86735 6.15633 7.86743Z" fill="#777777"/>
</svg>
