<svg width="255" height="29" viewBox="0 0 255 29" fill="none" xmlns="http://www.w3.org/2000/svg">
<g clip-path="url(#clip0_1_1752)">
<path d="M67.2713 28.8134H61.2278C61.2247 28.3142 61.2217 27.815 61.2201 27.3159C61.2201 26.797 61.2201 26.2796 61.2201 25.7607V19.6175C61.2201 19.1123 61.2201 18.6056 61.2201 18.1003C61.2201 17.5814 61.2201 17.0641 61.2201 16.5452V15.0507C61.1972 15.0462 61.1727 15.0431 61.1497 15.0386C59.6476 18.3067 58.1456 21.5748 56.6037 24.9308C55.0634 21.5839 53.5613 18.3203 52.0592 15.0553C52.0317 15.0583 52.0057 15.0629 51.9781 15.0659C51.972 17.3432 51.9766 19.6221 51.975 21.8994C51.975 24.1874 51.975 26.4738 51.975 28.7557C51.6795 28.8498 47.008 28.8877 45.9729 28.8103C45.8948 28.5524 45.8642 0.908798 45.9453 0.33074H51.6091C53.2826 4.15563 54.9133 8.03211 56.5899 11.945C56.6542 11.8221 56.6986 11.7493 56.7308 11.6719C58.1777 8.287 59.6231 4.9021 61.0701 1.51872C61.2048 1.20465 61.361 0.899695 61.4804 0.58108C61.5601 0.36867 61.6825 0.298879 61.9092 0.301913C62.6365 0.315568 63.3638 0.306465 64.0911 0.306465C65.0097 0.306465 65.9284 0.306465 66.8471 0.306465C66.9849 0.306465 67.1212 0.306465 67.2498 0.306465C67.3432 0.70094 67.3585 27.9212 67.2713 28.8149V28.8134Z" fill="#BF3940"/>
<path d="M236.412 0.619026C236.967 0.517372 237.514 0.403581 238.064 0.3171C239.287 0.125932 240.514 -0.0227553 241.755 0.00303736C243.577 0.0394505 245.364 0.292825 247.082 0.91033C248.597 1.45501 249.978 2.24093 251.146 3.34697C252.521 4.64874 253.47 6.21906 253.951 8.05033C254.678 10.8192 254.424 13.488 253.069 16.0278C252.504 17.0884 251.732 17.9957 250.828 18.7907C250.714 18.8893 250.602 18.991 250.483 19.0956C251.988 22.3334 253.486 25.5514 255 28.8104H247.923C246.946 26.4359 245.96 24.0433 244.978 21.6567C244.173 21.7659 243.374 21.8737 242.544 21.9859V28.7664C242.261 28.8407 237.009 28.8665 236.41 28.7952V0.619026H236.412ZM242.587 16.2478C243.945 16.2023 245.174 15.9049 246.254 15.1266C247.099 14.5182 247.664 13.705 247.927 12.7067C248.042 12.2712 248.091 11.813 248.125 11.3624C248.202 10.3595 247.949 9.42341 247.382 8.59501C246.557 7.38731 245.377 6.68484 243.954 6.36168C243.51 6.26002 243.058 6.24182 242.585 6.23271V16.2478H242.587Z" fill="#BF3940"/>
<path d="M121.113 0.323177C121.257 0.317108 121.382 0.306487 121.506 0.306487C123.152 0.306487 124.797 0.288281 126.443 0.309522C128.511 0.336832 130.525 0.666067 132.451 1.45502C134.592 2.33197 136.227 3.77332 137.407 5.73507C138.248 7.13243 138.713 8.66178 139.017 10.2473C139.41 12.3092 139.471 14.3893 139.309 16.4754C139.134 18.7088 138.661 20.8753 137.632 22.8887C136.939 24.2451 136.009 25.4285 134.823 26.3995C133.56 27.4327 132.088 28.0533 130.509 28.4326C129.34 28.7117 128.153 28.8437 126.946 28.8346C125.149 28.8195 123.35 28.8301 121.551 28.8316C121.413 28.8316 121.277 28.8316 121.114 28.8316V0.323177H121.113ZM127.391 6.54071V22.7779C127.721 22.74 128.023 22.7142 128.321 22.6672C129.81 22.4335 130.954 21.6931 131.707 20.3853C132.031 19.8224 132.27 19.2231 132.43 18.5965C132.972 16.4451 133.002 14.2679 132.708 12.0831C132.555 10.9482 132.208 9.86493 131.595 8.88025C131.059 8.02 130.353 7.34635 129.412 6.93215C128.773 6.65147 128.107 6.53616 127.392 6.54071H127.391Z" fill="#BF3940"/>
<path d="M154.445 0.323181H160.741C160.753 0.433938 160.771 0.529522 160.773 0.626624C160.78 1.38523 160.79 2.14384 160.79 2.90244C160.79 8.51461 160.79 14.1283 160.791 19.7405C160.791 21.2106 160.574 22.6338 159.943 23.9796C158.736 26.5497 156.732 28.1428 153.945 28.7542C151.88 29.2064 149.86 29.0531 147.926 28.1716C145.314 26.9791 143.742 24.9445 143.077 22.1938C142.898 21.4534 142.828 20.7009 142.828 19.9392C142.832 13.5684 142.831 7.19615 142.831 0.825378C142.831 0.664554 142.831 0.505247 142.831 0.326216H149.262C149.262 0.503729 149.262 0.664554 149.262 0.823861C149.262 7.28415 149.262 13.7429 149.258 20.2032C149.258 20.6508 149.304 21.0832 149.465 21.505C149.868 22.5549 150.897 23.1542 152.129 23.051C153.18 22.963 154.147 22.1088 154.328 21.0786C154.389 20.7327 154.403 20.3747 154.403 20.0227C154.408 14.0054 154.406 7.98814 154.406 1.97087C154.406 1.52785 154.411 1.08634 154.417 0.643313C154.417 0.535591 154.435 0.429386 154.446 0.323181H154.445Z" fill="#BF3940"/>
<path d="M213.57 0.326202H220.001C220.001 0.497647 220.001 0.658472 220.001 0.817779C220.001 7.27807 220.001 13.7368 219.999 20.1971C219.999 20.6037 220.031 21.0013 220.165 21.3912C220.544 22.5018 221.55 23.1345 222.826 23.0525C223.905 22.9827 224.89 22.1164 225.072 21.0453C225.132 20.6993 225.142 20.3413 225.142 19.9893C225.147 13.884 225.145 7.77723 225.145 1.67197V0.330754H231.478C231.491 0.429373 231.51 0.524957 231.512 0.622059C231.521 1.10302 231.529 1.58245 231.529 2.06341C231.529 7.95475 231.529 13.8446 231.53 19.7359C231.53 21.2182 231.308 22.6535 230.667 24.0099C229.459 26.5634 227.461 28.1443 224.689 28.7527C222.625 29.2063 220.604 29.0546 218.67 28.1731C216.057 26.9821 214.484 24.9475 213.818 22.1983C213.639 21.4579 213.567 20.7054 213.568 19.9438C213.573 13.573 213.571 7.20069 213.571 0.829917V0.326202H213.57Z" fill="#BF3940"/>
<path d="M210.082 14.6168C210.103 17.1672 209.724 19.6555 208.828 22.0512C208.202 23.7277 207.301 25.2464 206.002 26.5087C204.619 27.8515 202.984 28.7041 201.053 28.9332C199.329 29.1381 197.701 28.7952 196.187 27.9546C194.656 27.1065 193.51 25.8609 192.584 24.4135C191.638 22.9357 191.076 21.3001 190.695 19.5993C190.117 17.0322 190.001 14.4423 190.327 11.8373C190.563 9.94835 191.033 8.11404 191.851 6.38139C192.688 4.60321 193.824 3.04352 195.397 1.8343C196.807 0.749493 198.412 0.135022 200.214 0.160815C201.713 0.182056 203.089 0.619013 204.343 1.4641C205.98 2.56711 207.158 4.04943 208.075 5.75629C208.996 7.47074 209.517 9.30961 209.832 11.2167C210.019 12.3425 210.073 13.4774 210.084 14.6153L210.082 14.6168ZM196.571 14.7518C196.652 15.6819 196.715 16.6135 196.822 17.5405C196.943 18.598 197.196 19.6266 197.637 20.6037C197.905 21.197 198.243 21.7432 198.738 22.1801C199.098 22.4987 199.502 22.7187 199.998 22.7521C200.61 22.7946 201.123 22.5867 201.555 22.1695C202.086 21.6567 202.434 21.027 202.702 20.3519C203.212 19.0714 203.448 17.7317 203.555 16.3662C203.665 14.9521 203.65 13.5396 203.472 12.1316C203.32 10.9239 203.052 9.74505 202.555 8.62534C202.311 8.07763 202.01 7.56329 201.553 7.16275C201.338 6.9731 201.091 6.79407 200.828 6.68635C200.024 6.35711 199.222 6.58621 198.585 7.27199C197.984 7.91832 197.611 8.68603 197.35 9.51443C196.815 11.2183 196.609 12.9661 196.571 14.7503V14.7518Z" fill="#BF3940"/>
<path d="M71.335 13.702C71.3396 12.4943 71.6259 10.3975 72.2629 8.3553C72.7222 6.88512 73.373 5.49839 74.2748 4.24669C75.2333 2.91761 76.3725 1.75998 77.873 1.02262C80.5204 -0.277636 83.0851 -0.128949 85.5549 1.4975C87.1932 2.57624 88.3446 4.06766 89.2572 5.7639C90.1789 7.47835 90.7072 9.31721 91.0119 11.2259C91.2982 13.0207 91.3151 14.8217 91.1834 16.6302C91.0364 18.6375 90.6061 20.5795 89.8528 22.4441C89.2419 23.9598 88.3967 25.3405 87.2039 26.4845C85.8397 27.7923 84.2503 28.6753 82.341 28.9196C80.7547 29.1229 79.2434 28.865 77.8026 28.1807C76.4475 27.5374 75.3865 26.5527 74.4647 25.3997C73.3194 23.9689 72.6043 22.3319 72.122 20.5856C71.5831 18.6375 71.3304 16.6484 71.335 13.7004V13.702ZM84.8429 14.6426C84.7801 13.7991 84.7464 12.954 84.6499 12.115C84.5121 10.9194 84.2365 9.75266 83.7466 8.64509C83.5092 8.108 83.2076 7.6149 82.7835 7.19919C81.854 6.29038 80.6337 6.32679 79.7564 7.2887C79.3246 7.76207 78.9954 8.29765 78.7596 8.8924C78.2053 10.2943 77.9465 11.7599 77.8516 13.2498C77.7506 14.8535 77.7858 16.4557 78.0736 18.0457C78.2666 19.1078 78.5406 20.141 79.0674 21.0938C79.3276 21.5642 79.6538 21.9814 80.081 22.3137C80.9078 22.9539 81.9413 22.9266 82.6901 22.2029C82.9963 21.907 83.278 21.5596 83.4725 21.1849C83.7619 20.6265 84.0053 20.0378 84.1921 19.437C84.6775 17.8788 84.7985 16.2676 84.8444 14.6426H84.8429Z" fill="#BF3940"/>
<path d="M32.1941 0.332275V6.36623H23.1802V12.2894C25.9899 12.2925 28.8026 12.2894 31.6061 12.2909C31.6995 12.6187 31.7332 17.316 31.6521 18.3416C31.5127 18.3477 31.3673 18.3583 31.2203 18.3583C28.6939 18.3583 26.1675 18.3583 23.6411 18.3583H23.1725V22.7552H32.191V28.7664C31.8986 28.8407 17.4567 28.8574 16.9897 28.783V0.332275H32.191H32.1941Z" fill="#BF3940"/>
<path d="M104.037 28.8134H97.6662C97.657 28.6844 97.6417 28.563 97.6417 28.4432C97.6386 23.9052 97.6341 19.3657 97.6341 14.8277C97.6341 12.1862 97.6402 9.54326 97.6417 6.90179C97.6417 6.73945 97.6279 6.57863 97.6187 6.37987H92.2612V0.367158C92.5338 0.288263 108.528 0.250333 109.384 0.32771C109.467 0.585637 109.491 5.83368 109.406 6.37229H104.039V28.8149L104.037 28.8134Z" fill="#BF3940"/>
<path d="M0 0.324677H6.3742C6.38491 2.82959 6.37726 5.31479 6.37879 7.79998C6.37879 10.2776 6.37879 12.7552 6.37879 15.2328V22.7521C6.8856 22.7643 7.39088 22.7567 7.89616 22.7582C8.41982 22.7582 8.94194 22.7582 9.4656 22.7582H12.5662C13.0745 22.7582 13.5829 22.7582 14.0805 22.7582C14.1724 23.095 14.1984 28.0457 14.1218 28.7618C13.8569 28.8422 0.650741 28.8741 0.00153115 28.7921V0.324677H0Z" fill="#BF3940"/>
<path d="M180.399 0.32469H186.678C186.686 0.471859 186.698 0.605374 186.698 0.740406C186.701 1.77666 186.703 2.81444 186.703 3.85069C186.703 9.16094 186.701 14.4712 186.704 19.7814C186.704 20.9755 186.608 22.1589 186.237 23.2998C185.352 26.0278 183.587 27.897 180.763 28.6935C178.693 29.2777 176.724 28.9666 174.842 27.9789C173.878 27.4722 173.013 26.8349 172.195 26.0414C173.706 24.6274 175.248 23.274 176.796 21.8691C176.893 21.9935 176.98 22.0952 177.056 22.2044C177.355 22.6308 177.776 22.8917 178.268 23.0176C178.879 23.1754 179.402 22.9934 179.803 22.5033C180.126 22.1088 180.295 21.6491 180.352 21.1499C180.382 20.8875 180.396 20.6204 180.396 20.3549C180.399 14.1086 180.399 7.86372 180.399 1.61735C180.399 1.20164 180.399 0.784405 180.399 0.321655V0.32469Z" fill="#BF3940"/>
</g>
<defs>
<clipPath id="clip0_1_1752">
<rect width="255" height="29" fill="white"/>
</clipPath>
</defs>
</svg>
