<svg width="16" height="16" viewBox="0 0 16 16" fill="none" xmlns="http://www.w3.org/2000/svg">
<path d="M14.6667 3.86656C14.1656 4.08396 13.6357 4.22767 13.0934 4.29323C13.6655 3.95144 14.0942 3.41375 14.3 2.7799C13.7624 3.09994 13.1739 3.32543 12.56 3.44656C12.1497 3.00161 11.6034 2.70543 11.0066 2.60446C10.4098 2.5035 9.7964 2.60347 9.26257 2.88869C8.72873 3.17391 8.30466 3.62825 8.05687 4.18045C7.80907 4.73266 7.75157 5.35149 7.89337 5.9399C6.80632 5.88491 5.743 5.60186 4.77248 5.10914C3.80195 4.61641 2.94594 3.92502 2.26004 3.0799C2.01947 3.50001 1.89305 3.97578 1.89337 4.4599C1.89252 4.90948 2.00285 5.35231 2.21454 5.74894C2.42624 6.14557 2.73272 6.4837 3.10671 6.73323C2.67203 6.7214 2.24663 6.60476 1.86671 6.39323V6.42656C1.86997 7.05649 2.0907 7.66596 2.49158 8.15187C2.89246 8.63779 3.44888 8.97032 4.06671 9.09323C3.82888 9.16561 3.58196 9.20377 3.33337 9.20656C3.1613 9.20455 2.98966 9.18895 2.82004 9.1599C2.99598 9.70177 3.33646 10.1753 3.79409 10.5147C4.25173 10.854 4.80376 11.0423 5.37337 11.0532C4.41151 11.8101 3.22396 12.2231 2.00004 12.2266C1.7772 12.2273 1.55453 12.2139 1.33337 12.1866C2.58299 12.9934 4.03925 13.4217 5.52671 13.4199C6.55317 13.4306 7.57146 13.2366 8.52212 12.8493C9.47277 12.462 10.3367 11.8892 11.0635 11.1642C11.7903 10.4393 12.3653 9.57682 12.7551 8.62717C13.1448 7.67751 13.3414 6.65971 13.3334 5.63323C13.3334 5.5199 13.3334 5.3999 13.3334 5.2799C13.8565 4.88977 14.3077 4.41151 14.6667 3.86656Z" fill="#A2A2A2"/>
</svg>
